<?xml version="1.0" encoding="UTF-8"?>
<svg id="Layer_1" xmlns="http://www.w3.org/2000/svg" version="1.1" viewBox="0 0 1024 1024">
  <!-- Generator: Adobe Illustrator 29.1.0, SVG Export Plug-In . SVG Version: 2.1.0 Build 142)  -->
  <defs>
    <style>
      .st0 {
        fill: #fff;
      }

      .st1 {
        fill: #2b6390;
      }
    </style>
  </defs>
  <path class="st1" d="M376.32,921.18c-83.7,0-144.43-19.21-146.97-20.03-85.31-27.49-132.29-42.63-156.45-89.34-13.94-26.95-14.74-55.19-2.68-94.45,11.3-36.79,34.43-86.63,79.84-172.02,1.81-3.4,45.04-84.4,106.47-174.56,84.09-123.41,158.65-200.26,221.61-228.42,13.4-5.99,38.16-12.44,60.87-12.44,5.38,0,10.52.37,15.26,1.09,5.01.76,20.23,3.07,35.72,13.33,1.59,1.05,9.88,6.73,17.3,15.34,13.05,15.15,99.26,159.99,172.54,299.2,44.77,85.04,79.8,158.15,104.13,217.29,32.15,78.16,44.71,129.05,39.53,160.15-3.42,20.51-14.13,30.67-22.51,35.58-4.76,2.79-9.5,4.01-19.88,6.68-12.46,3.21-38.34,9.87-64.27,9.87-19.26,0-35.4-3.77-47.96-11.21-22.98-13.61-27.97-35.08-33.25-57.82-1.98-8.54-4.23-18.23-7.64-29.34-9.77-31.88-30.1-98.22-74.86-119.97-11.57-5.62-26.07-8.72-40.82-8.72-26.41,0-50.34,9.48-62.46,24.75-13.75,17.32-12.76,42.66-12.17,57.8.93,23.85,8.38,43.2,14.95,60.28,8.68,22.56,18.52,48.12,2.48,72.15-11.32,16.96-29.3,22.34-37.94,24.93-44.05,13.19-91.43,19.88-140.83,19.88Z"/>
  <path class="st0" d="M539.01,154.93c3.98,0,7.85.25,11.5.8,4.09.62,14.78,2.25,25.68,9.46,0,0,6.63,4.39,12.16,10.81,20.53,23.82,378.72,628.25,300,674.32-1.75,1.03-5.67,2.04-13.51,4.05-11.33,2.92-35.26,9.08-58.02,9.08-12.96,0-25.55-2-35.22-7.72-19.58-11.59-17.37-32.64-29.73-72.97-10.5-34.27-33.29-108.63-87.84-135.14-15.45-7.51-33.58-11.24-51.75-11.24-31.94,0-64.02,11.51-82.04,34.21-19.51,24.58-18.25,56.89-17.57,74.32,2.33,59.6,38.3,92.59,21.62,117.57-5.76,8.63-14.97,12.06-24.32,14.86-47.16,14.12-93.21,18.83-133.65,18.83-80.88,0-139.32-18.83-139.32-18.83-81.65-26.31-122.47-39.47-141.89-77.03-19.78-38.24-8.54-82.34,77.03-243.24,0,0,174.75-328.61,316.22-391.89,10.26-4.59,31.61-10.26,50.66-10.26M539.01,104.93h0c-26.52,0-54.81,7.34-71.07,14.62-39.11,17.49-80.19,50.15-125.59,99.85-33.69,36.87-69.51,83.07-106.47,137.32-62.2,91.28-106.05,173.44-107.89,176.9-46.21,86.89-69.87,138-81.67,176.42-7.09,23.08-10.12,42.28-9.53,60.41.61,18.65,5.15,35.94,13.9,52.86,14.26,27.58,36.47,48.1,69.9,64.6,26.13,12.9,57.57,23.03,101.07,37.05v-.02c4.01,1.37,8.3,2.49,13.07,3.74,10.04,2.63,20.89,5.06,32.25,7.22,35.88,6.83,72.67,10.3,109.35,10.3,51.82,0,101.62-7.04,148-20.93,10.55-3.16,35.24-10.55,51.56-35,11.28-16.9,15.15-36.43,11.48-58.04-2.21-13.03-6.89-25.2-11.42-36.97-6.16-16.01-12.53-32.57-13.3-52.28-.46-11.68-1.22-31.22,6.77-41.28,7.26-9.15,24.49-15.3,42.88-15.3,11.04,0,21.66,2.2,29.89,6.21,13.7,6.66,26.51,21.14,38.08,43.03,11.62,22.01,18.95,45.94,23.81,61.78,3.15,10.29,5.21,19.13,7.19,27.68,2.83,12.17,5.5,23.67,10.57,34.96,7.48,16.64,19.02,29.67,34.3,38.72,16.47,9.75,36.9,14.7,60.7,14.7,29.1,0,57.05-7.2,70.48-10.66,11.55-2.97,18.52-4.77,26.3-9.32,10.64-6.23,29.28-21.4,34.55-53.05,6.06-36.39-6.6-89.99-41.07-173.77-24.63-59.87-60-133.7-105.13-219.43-45.66-86.74-89.31-162.72-111.27-200.3-15-25.67-28.91-48.92-40.22-67.24-17.89-28.96-21.86-33.57-24.24-36.33-.01-.02-.03-.03-.04-.04v-4.99l-22.39-14.83c-20.09-13.3-39.42-16.24-45.77-17.2-5.98-.91-12.38-1.37-19.01-1.37h0Z"/>
</svg>