<svg width="332" height="206" viewBox="0 0 332 206" fill="none" xmlns="http://www.w3.org/2000/svg">
<path d="M215.562 205.765C213.629 205.92 211.676 205.999 209.705 206H72.1812C62.7149 206.035 53.3348 204.201 44.579 200.603C35.8232 197.005 27.8639 191.714 21.1577 185.032C14.4516 178.351 9.13049 170.412 5.49974 161.669C1.86898 152.927 0 143.554 0 134.087C0 124.621 1.86898 115.248 5.49974 106.506C9.13049 97.7633 14.4516 89.8238 21.1577 83.1426C27.8639 76.4614 35.8232 71.17 44.579 67.5718C53.3348 63.9737 62.7149 62.1397 72.1812 62.175H123.457C140.081 25.6 178.368 0 222.941 0C282.768 0 331.268 46.115 331.268 103C331.268 159.885 282.768 206 222.941 206C220.461 206 218.001 205.922 215.562 205.765Z" fill="url(#paint0_linear_102_123)"/>
<path d="M222.941 205C230.227 205 237.508 204.302 244.582 202.926C251.475 201.585 258.255 199.584 264.734 196.978C271.095 194.42 277.229 191.254 282.968 187.568C288.651 183.917 293.995 179.725 298.851 175.107C303.707 170.49 308.115 165.411 311.953 160.009C315.827 154.557 319.154 148.728 321.842 142.686C324.579 136.532 326.682 130.093 328.09 123.547C329.536 116.831 330.269 109.917 330.269 103C330.269 96.0819 329.536 89.1687 328.09 82.4522C326.682 75.9062 324.579 69.4673 321.842 63.3142C319.154 57.2716 315.827 51.4433 311.953 45.991C308.115 40.5893 303.707 35.5095 298.851 30.8928C293.995 26.2752 288.651 22.0829 282.968 18.4323C277.229 14.7461 271.095 11.5801 264.734 9.02208C258.255 6.41654 251.475 4.41537 244.582 3.07421C237.508 1.69788 230.227 1 222.941 1C201.57 1 180.931 6.95233 163.255 18.2135C154.734 23.6418 147.078 30.1939 140.498 37.6878C133.876 45.2291 128.449 53.6069 124.367 62.5885L124.101 63.1747H123.457H72.1812C62.6077 63.1747 53.321 65.0495 44.5792 68.747C40.3776 70.5242 36.325 72.7238 32.5341 75.2849C28.7789 77.8219 25.2477 80.7354 22.0385 83.9446C18.8293 87.1538 15.9157 90.685 13.3788 94.4402C10.8177 98.2311 8.61801 102.284 6.84085 106.485C3.14335 115.227 1.26855 124.514 1.26855 134.087C1.26855 143.661 3.14335 152.948 6.84085 161.689C8.61801 165.891 10.8177 169.944 13.3788 173.735C15.9157 177.49 18.8293 181.021 22.0385 184.23C25.2477 187.439 28.7789 190.353 32.5341 192.89C36.325 195.451 40.3776 197.651 44.5792 199.428C53.321 203.125 62.6077 205 72.1812 205H209.706C211.629 205 213.572 204.922 215.483 204.768L215.555 204.762L215.627 204.767C218.046 204.922 220.507 205 222.941 205ZM222.941 206C220.462 206 218.001 205.921 215.563 205.765C213.632 205.92 211.676 206 209.706 206H72.1812C32.4651 206 0.268555 173.803 0.268555 134.087C0.268555 94.3713 32.4651 62.1747 72.1812 62.1747H123.457C140.081 25.5954 178.366 0 222.941 0C282.769 0 331.269 46.1151 331.269 103C331.269 159.885 282.769 206 222.941 206Z" fill="white" fill-opacity="0.5"/>
<defs>
<linearGradient id="paint0_linear_102_123" x1="134.164" y1="25.9561" x2="200.206" y2="217.168" gradientUnits="userSpaceOnUse">
<stop stop-color="white" stop-opacity="0.596"/>
<stop offset="1" stop-color="#F7F7F7" stop-opacity="0.204"/>
</linearGradient>
</defs>
</svg>
