<svg width="21" height="22" viewBox="0 0 21 22" fill="none" xmlns="http://www.w3.org/2000/svg">
<path d="M14 2.25V4" stroke="#006FC8" stroke-width="2" stroke-linecap="round" stroke-linejoin="round"/>
<path d="M6.125 19.75V18C6.125 17.5359 6.30937 17.0908 6.63756 16.7626C6.96575 16.4344 7.41087 16.25 7.875 16.25H13.125C13.5891 16.25 14.0342 16.4344 14.3624 16.7626C14.6906 17.0908 14.875 17.5359 14.875 18V19.75" stroke="#006FC8" stroke-width="2" stroke-linecap="round" stroke-linejoin="round"/>
<path d="M7 2.25V4" stroke="#006FC8" stroke-width="2" stroke-linecap="round" stroke-linejoin="round"/>
<path d="M10.5 12.75C11.9497 12.75 13.125 11.5747 13.125 10.125C13.125 8.67525 11.9497 7.5 10.5 7.5C9.05025 7.5 7.875 8.67525 7.875 10.125C7.875 11.5747 9.05025 12.75 10.5 12.75Z" stroke="#006FC8" stroke-width="2" stroke-linecap="round" stroke-linejoin="round"/>
<path d="M16.625 4H4.375C3.4085 4 2.625 4.7835 2.625 5.75V18C2.625 18.9665 3.4085 19.75 4.375 19.75H16.625C17.5915 19.75 18.375 18.9665 18.375 18V5.75C18.375 4.7835 17.5915 4 16.625 4Z" stroke="#006FC8" stroke-width="2" stroke-linecap="round" stroke-linejoin="round"/>
</svg>
