<svg width="22" height="21" viewBox="0 0 22 21" fill="none" xmlns="http://www.w3.org/2000/svg">
<path d="M11 18.8333C15.8325 18.8333 19.75 15.1024 19.75 10.5C19.75 5.89763 15.8325 2.16667 11 2.16667C6.16751 2.16667 2.25 5.89763 2.25 10.5C2.25 15.1024 6.16751 18.8333 11 18.8333Z" stroke="#006FC8" stroke-width="2" stroke-linecap="round" stroke-linejoin="round"/>
<path d="M8.45386 8C8.65957 7.44306 9.06562 6.97342 9.60007 6.67428C10.1345 6.37513 10.7629 6.26578 11.3739 6.36559C11.9849 6.4654 12.5391 6.76794 12.9383 7.21961C13.3375 7.67128 13.556 8.24293 13.5551 8.83333C13.5551 10.5 10.9301 11.3333 10.9301 11.3333" stroke="#006FC8" stroke-width="2" stroke-linecap="round" stroke-linejoin="round"/>
<path d="M11 14.6667H11.0088" stroke="#006FC8" stroke-width="2" stroke-linecap="round" stroke-linejoin="round"/>
</svg>
