<svg width="1931" height="1566" viewBox="0 0 1931 1566" fill="none" xmlns="http://www.w3.org/2000/svg">
<g filter="url(#filter0_dii_23_737)">
<path d="M1322.48 702.557C1313.69 779.131 1289.86 877.361 1054.6 875.815C819.332 874.27 852.78 742.072 861.566 665.498C870.351 588.924 966.461 532.673 1090.94 545.464C1215.41 558.255 1331.26 625.983 1322.48 702.557Z" fill="url(#paint0_linear_23_737)"/>
<path d="M1254.77 459.031C1245.98 535.605 1222.15 633.835 986.886 632.29C751.622 630.744 785.07 498.546 793.856 421.972C802.642 345.398 898.752 289.147 1023.23 301.938C1147.7 314.729 1263.55 382.457 1254.77 459.031Z" fill="url(#paint1_linear_23_737)"/>
<ellipse cx="260.065" cy="202.293" rx="260.065" ry="202.293" transform="matrix(0.985355 0.170517 -0.189714 0.981839 870.133 86)" fill="url(#paint2_radial_23_737)"/>
<path d="M910.94 254.06C932.769 305.109 887.027 375.862 808.997 405.744C730.967 435.626 639.666 426.01 617.838 374.961C596.01 323.912 641.751 253.16 719.782 223.278C797.812 193.395 889.112 203.011 910.94 254.06Z" fill="url(#paint3_linear_23_737)"/>
<path d="M901.928 768.56C810.68 846.044 662.005 830.067 569.854 732.875C477.702 635.683 476.97 494.081 568.218 416.597C659.466 339.114 808.141 355.09 900.292 452.283C992.443 549.475 993.176 691.077 901.928 768.56Z" fill="url(#paint4_linear_23_737)"/>
<path d="M1263.46 778.557C1167.3 763.797 1138.8 664.456 1159.26 545.061C1202.64 433.289 1262.81 365.583 1358.97 380.343C1455.13 395.104 1512.51 489.341 1492.05 608.737C1471.59 728.132 1359.62 793.318 1263.46 778.557Z" fill="url(#paint5_radial_23_737)"/>
</g>
<g filter="url(#filter1_f_23_737)">
<ellipse cx="1008.41" cy="671.57" rx="332.142" ry="87.6754" fill="url(#paint6_linear_23_737)"/>
</g>
<g filter="url(#filter2_dii_23_737)">
<path d="M869.544 684.526C872.702 677.187 879.925 672.432 887.915 672.432L1132.75 672.432C1148.72 672.432 1158.25 690.235 1149.39 703.526L1065.58 829.234C1055.37 844.549 1069.52 864.359 1087.32 859.668L1153.3 842.274C1171.38 837.51 1185.53 857.938 1174.72 873.184L1036.33 1068.29L822.679 1344.94C809.741 1361.69 783.047 1349.49 787.248 1328.75L849.623 1020.73C852.132 1008.34 842.662 996.759 830.021 996.759L765.551 996.759C751.18 996.759 741.499 982.053 747.18 968.853L869.544 684.526Z" fill="url(#paint7_radial_23_737)"/>
</g>
<g filter="url(#filter3_dii_23_737)">
<path d="M755.712 734.146C755.712 773.913 721.588 807.963 683.968 807.963C646.347 807.963 613 773.913 613 734.146C613 704.107 652.128 659.463 673.665 649.861C679.774 647.137 688.149 647.354 694.198 650.209C715.299 660.171 755.712 702.718 755.712 734.146Z" fill="#50B1D8"/>
</g>
<g filter="url(#filter4_f_23_737)">
<ellipse cx="634.498" cy="747.976" rx="17.8714" ry="20.2024" fill="white"/>
</g>
<g filter="url(#filter5_dii_23_737)">
<path d="M1265.71 1093.15C1265.71 1132.91 1231.59 1166.96 1193.97 1166.96C1156.35 1166.96 1123 1132.91 1123 1093.15C1123 1063.11 1162.13 1018.46 1183.66 1008.86C1189.77 1006.14 1198.15 1006.35 1204.2 1009.21C1225.3 1019.17 1265.71 1061.72 1265.71 1093.15Z" fill="#50B1D8"/>
</g>
<g filter="url(#filter6_f_23_737)">
<ellipse cx="1144.5" cy="1106.98" rx="17.8714" ry="20.2024" fill="white"/>
</g>
<g filter="url(#filter7_dii_23_737)">
<path d="M744.712 1315.15C744.712 1354.91 710.588 1388.96 672.968 1388.96C635.347 1388.96 602 1354.91 602 1315.15C602 1285.11 641.128 1240.46 662.665 1230.86C668.774 1228.14 677.149 1228.35 683.198 1231.21C704.299 1241.17 744.712 1283.72 744.712 1315.15Z" fill="#50B1D8"/>
</g>
<g filter="url(#filter8_f_23_737)">
<ellipse cx="623.498" cy="1328.98" rx="17.8714" ry="20.2024" fill="white"/>
</g>
<defs>
<filter id="filter0_dii_23_737" x="460.258" y="123.41" width="1037.92" height="792.422" filterUnits="userSpaceOnUse" color-interpolation-filters="sRGB">
<feFlood flood-opacity="0" result="BackgroundImageFix"/>
<feColorMatrix in="SourceAlpha" type="matrix" values="0 0 0 0 0 0 0 0 0 0 0 0 0 0 0 0 0 0 127 0" result="hardAlpha"/>
<feOffset dx="-20" dy="20"/>
<feGaussianBlur stdDeviation="10"/>
<feComposite in2="hardAlpha" operator="out"/>
<feColorMatrix type="matrix" values="0 0 0 0 0 0 0 0 0 0 0 0 0 0 0 0 0 0 0.25 0"/>
<feBlend mode="normal" in2="BackgroundImageFix" result="effect1_dropShadow_23_737"/>
<feBlend mode="normal" in="SourceGraphic" in2="effect1_dropShadow_23_737" result="shape"/>
<feColorMatrix in="SourceAlpha" type="matrix" values="0 0 0 0 0 0 0 0 0 0 0 0 0 0 0 0 0 0 127 0" result="hardAlpha"/>
<feOffset dx="2" dy="-2"/>
<feGaussianBlur stdDeviation="1"/>
<feComposite in2="hardAlpha" operator="arithmetic" k2="-1" k3="1"/>
<feColorMatrix type="matrix" values="0 0 0 0 0 0 0 0 0 0 0 0 0 0 0 0 0 0 0.25 0"/>
<feBlend mode="normal" in2="shape" result="effect2_innerShadow_23_737"/>
<feColorMatrix in="SourceAlpha" type="matrix" values="0 0 0 0 0 0 0 0 0 0 0 0 0 0 0 0 0 0 127 0" result="hardAlpha"/>
<feOffset dx="-2" dy="2"/>
<feGaussianBlur stdDeviation="1"/>
<feComposite in2="hardAlpha" operator="arithmetic" k2="-1" k3="1"/>
<feColorMatrix type="matrix" values="0 0 0 0 1 0 0 0 0 1 0 0 0 0 1 0 0 0 0.25 0"/>
<feBlend mode="normal" in2="effect2_innerShadow_23_737" result="effect3_innerShadow_23_737"/>
</filter>
<filter id="filter1_f_23_737" x="476.264" y="383.895" width="1064.29" height="575.352" filterUnits="userSpaceOnUse" color-interpolation-filters="sRGB">
<feFlood flood-opacity="0" result="BackgroundImageFix"/>
<feBlend mode="normal" in="SourceGraphic" in2="BackgroundImageFix" result="shape"/>
<feGaussianBlur stdDeviation="100" result="effect1_foregroundBlur_23_737"/>
</filter>
<filter id="filter2_dii_23_737" x="705.529" y="670.434" width="474.949" height="722.367" filterUnits="userSpaceOnUse" color-interpolation-filters="sRGB">
<feFlood flood-opacity="0" result="BackgroundImageFix"/>
<feColorMatrix in="SourceAlpha" type="matrix" values="0 0 0 0 0 0 0 0 0 0 0 0 0 0 0 0 0 0 127 0" result="hardAlpha"/>
<feOffset dx="-20" dy="20"/>
<feGaussianBlur stdDeviation="10"/>
<feComposite in2="hardAlpha" operator="out"/>
<feColorMatrix type="matrix" values="0 0 0 0 0 0 0 0 0 0 0 0 0 0 0 0 0 0 0.25 0"/>
<feBlend mode="normal" in2="BackgroundImageFix" result="effect1_dropShadow_23_737"/>
<feBlend mode="normal" in="SourceGraphic" in2="effect1_dropShadow_23_737" result="shape"/>
<feColorMatrix in="SourceAlpha" type="matrix" values="0 0 0 0 0 0 0 0 0 0 0 0 0 0 0 0 0 0 127 0" result="hardAlpha"/>
<feOffset dx="2" dy="-2"/>
<feGaussianBlur stdDeviation="1"/>
<feComposite in2="hardAlpha" operator="arithmetic" k2="-1" k3="1"/>
<feColorMatrix type="matrix" values="0 0 0 0 0 0 0 0 0 0 0 0 0 0 0 0 0 0 0.25 0"/>
<feBlend mode="normal" in2="shape" result="effect2_innerShadow_23_737"/>
<feColorMatrix in="SourceAlpha" type="matrix" values="0 0 0 0 0 0 0 0 0 0 0 0 0 0 0 0 0 0 127 0" result="hardAlpha"/>
<feOffset dx="-2" dy="2"/>
<feGaussianBlur stdDeviation="1"/>
<feComposite in2="hardAlpha" operator="arithmetic" k2="-1" k3="1"/>
<feColorMatrix type="matrix" values="0 0 0 0 1 0 0 0 0 1 0 0 0 0 1 0 0 0 0.25 0"/>
<feBlend mode="normal" in2="effect2_innerShadow_23_737" result="effect3_innerShadow_23_737"/>
</filter>
<filter id="filter3_dii_23_737" x="573" y="647.938" width="184.713" height="200.027" filterUnits="userSpaceOnUse" color-interpolation-filters="sRGB">
<feFlood flood-opacity="0" result="BackgroundImageFix"/>
<feColorMatrix in="SourceAlpha" type="matrix" values="0 0 0 0 0 0 0 0 0 0 0 0 0 0 0 0 0 0 127 0" result="hardAlpha"/>
<feOffset dx="-20" dy="20"/>
<feGaussianBlur stdDeviation="10"/>
<feComposite in2="hardAlpha" operator="out"/>
<feColorMatrix type="matrix" values="0 0 0 0 0 0 0 0 0 0 0 0 0 0 0 0 0 0 0.25 0"/>
<feBlend mode="normal" in2="BackgroundImageFix" result="effect1_dropShadow_23_737"/>
<feBlend mode="normal" in="SourceGraphic" in2="effect1_dropShadow_23_737" result="shape"/>
<feColorMatrix in="SourceAlpha" type="matrix" values="0 0 0 0 0 0 0 0 0 0 0 0 0 0 0 0 0 0 127 0" result="hardAlpha"/>
<feOffset dx="2"/>
<feGaussianBlur stdDeviation="10"/>
<feComposite in2="hardAlpha" operator="arithmetic" k2="-1" k3="1"/>
<feColorMatrix type="matrix" values="0 0 0 0 0.294118 0 0 0 0 0.607843 0 0 0 0 0.733333 0 0 0 0.7 0"/>
<feBlend mode="normal" in2="shape" result="effect2_innerShadow_23_737"/>
<feColorMatrix in="SourceAlpha" type="matrix" values="0 0 0 0 0 0 0 0 0 0 0 0 0 0 0 0 0 0 127 0" result="hardAlpha"/>
<feOffset dx="-2"/>
<feGaussianBlur stdDeviation="10"/>
<feComposite in2="hardAlpha" operator="arithmetic" k2="-1" k3="1"/>
<feColorMatrix type="matrix" values="0 0 0 0 0.293333 0 0 0 0 0.608235 0 0 0 0 0.733333 0 0 0 0.7 0"/>
<feBlend mode="normal" in2="effect2_innerShadow_23_737" result="effect3_innerShadow_23_737"/>
</filter>
<filter id="filter4_f_23_737" x="556.627" y="667.773" width="155.742" height="160.406" filterUnits="userSpaceOnUse" color-interpolation-filters="sRGB">
<feFlood flood-opacity="0" result="BackgroundImageFix"/>
<feBlend mode="normal" in="SourceGraphic" in2="BackgroundImageFix" result="shape"/>
<feGaussianBlur stdDeviation="30" result="effect1_foregroundBlur_23_737"/>
</filter>
<filter id="filter5_dii_23_737" x="1083" y="1006.94" width="184.713" height="200.027" filterUnits="userSpaceOnUse" color-interpolation-filters="sRGB">
<feFlood flood-opacity="0" result="BackgroundImageFix"/>
<feColorMatrix in="SourceAlpha" type="matrix" values="0 0 0 0 0 0 0 0 0 0 0 0 0 0 0 0 0 0 127 0" result="hardAlpha"/>
<feOffset dx="-20" dy="20"/>
<feGaussianBlur stdDeviation="10"/>
<feComposite in2="hardAlpha" operator="out"/>
<feColorMatrix type="matrix" values="0 0 0 0 0 0 0 0 0 0 0 0 0 0 0 0 0 0 0.25 0"/>
<feBlend mode="normal" in2="BackgroundImageFix" result="effect1_dropShadow_23_737"/>
<feBlend mode="normal" in="SourceGraphic" in2="effect1_dropShadow_23_737" result="shape"/>
<feColorMatrix in="SourceAlpha" type="matrix" values="0 0 0 0 0 0 0 0 0 0 0 0 0 0 0 0 0 0 127 0" result="hardAlpha"/>
<feOffset dx="2"/>
<feGaussianBlur stdDeviation="10"/>
<feComposite in2="hardAlpha" operator="arithmetic" k2="-1" k3="1"/>
<feColorMatrix type="matrix" values="0 0 0 0 0.294118 0 0 0 0 0.607843 0 0 0 0 0.733333 0 0 0 0.7 0"/>
<feBlend mode="normal" in2="shape" result="effect2_innerShadow_23_737"/>
<feColorMatrix in="SourceAlpha" type="matrix" values="0 0 0 0 0 0 0 0 0 0 0 0 0 0 0 0 0 0 127 0" result="hardAlpha"/>
<feOffset dx="-2"/>
<feGaussianBlur stdDeviation="10"/>
<feComposite in2="hardAlpha" operator="arithmetic" k2="-1" k3="1"/>
<feColorMatrix type="matrix" values="0 0 0 0 0.293333 0 0 0 0 0.608235 0 0 0 0 0.733333 0 0 0 0.7 0"/>
<feBlend mode="normal" in2="effect2_innerShadow_23_737" result="effect3_innerShadow_23_737"/>
</filter>
<filter id="filter6_f_23_737" x="1066.63" y="1026.77" width="155.742" height="160.406" filterUnits="userSpaceOnUse" color-interpolation-filters="sRGB">
<feFlood flood-opacity="0" result="BackgroundImageFix"/>
<feBlend mode="normal" in="SourceGraphic" in2="BackgroundImageFix" result="shape"/>
<feGaussianBlur stdDeviation="30" result="effect1_foregroundBlur_23_737"/>
</filter>
<filter id="filter7_dii_23_737" x="562" y="1228.94" width="184.713" height="200.027" filterUnits="userSpaceOnUse" color-interpolation-filters="sRGB">
<feFlood flood-opacity="0" result="BackgroundImageFix"/>
<feColorMatrix in="SourceAlpha" type="matrix" values="0 0 0 0 0 0 0 0 0 0 0 0 0 0 0 0 0 0 127 0" result="hardAlpha"/>
<feOffset dx="-20" dy="20"/>
<feGaussianBlur stdDeviation="10"/>
<feComposite in2="hardAlpha" operator="out"/>
<feColorMatrix type="matrix" values="0 0 0 0 0 0 0 0 0 0 0 0 0 0 0 0 0 0 0.25 0"/>
<feBlend mode="normal" in2="BackgroundImageFix" result="effect1_dropShadow_23_737"/>
<feBlend mode="normal" in="SourceGraphic" in2="effect1_dropShadow_23_737" result="shape"/>
<feColorMatrix in="SourceAlpha" type="matrix" values="0 0 0 0 0 0 0 0 0 0 0 0 0 0 0 0 0 0 127 0" result="hardAlpha"/>
<feOffset dx="2"/>
<feGaussianBlur stdDeviation="10"/>
<feComposite in2="hardAlpha" operator="arithmetic" k2="-1" k3="1"/>
<feColorMatrix type="matrix" values="0 0 0 0 0.294118 0 0 0 0 0.607843 0 0 0 0 0.733333 0 0 0 0.7 0"/>
<feBlend mode="normal" in2="shape" result="effect2_innerShadow_23_737"/>
<feColorMatrix in="SourceAlpha" type="matrix" values="0 0 0 0 0 0 0 0 0 0 0 0 0 0 0 0 0 0 127 0" result="hardAlpha"/>
<feOffset dx="-2"/>
<feGaussianBlur stdDeviation="10"/>
<feComposite in2="hardAlpha" operator="arithmetic" k2="-1" k3="1"/>
<feColorMatrix type="matrix" values="0 0 0 0 0.293333 0 0 0 0 0.608235 0 0 0 0 0.733333 0 0 0 0.7 0"/>
<feBlend mode="normal" in2="effect2_innerShadow_23_737" result="effect3_innerShadow_23_737"/>
</filter>
<filter id="filter8_f_23_737" x="545.627" y="1248.77" width="155.742" height="160.406" filterUnits="userSpaceOnUse" color-interpolation-filters="sRGB">
<feFlood flood-opacity="0" result="BackgroundImageFix"/>
<feBlend mode="normal" in="SourceGraphic" in2="BackgroundImageFix" result="shape"/>
<feGaussianBlur stdDeviation="30" result="effect1_foregroundBlur_23_737"/>
</filter>
<linearGradient id="paint0_linear_23_737" x1="1054.92" y1="1195.14" x2="1084.79" y2="668.188" gradientUnits="userSpaceOnUse">
<stop offset="1" stop-color="#16425B"/>
</linearGradient>
<linearGradient id="paint1_linear_23_737" x1="1054.92" y1="1195.14" x2="1084.79" y2="668.188" gradientUnits="userSpaceOnUse">
<stop offset="1" stop-color="#16425B"/>
</linearGradient>
<radialGradient id="paint2_radial_23_737" cx="0" cy="0" r="1" gradientUnits="userSpaceOnUse" gradientTransform="translate(476.104 42.1348) rotate(155.688) scale(249.475 307.741)">
<stop stop-color="#16425B" stop-opacity="0.898638"/>
<stop offset="1" stop-color="#16425B"/>
</radialGradient>
<linearGradient id="paint3_linear_23_737" x1="738.247" y1="217.799" x2="815.804" y2="321.512" gradientUnits="userSpaceOnUse">
<stop offset="1" stop-color="#16425B"/>
</linearGradient>
<linearGradient id="paint4_linear_23_737" x1="428.58" y1="931.565" x2="707.733" y2="644.906" gradientUnits="userSpaceOnUse">
<stop offset="1" stop-color="#16425B"/>
</linearGradient>
<radialGradient id="paint5_radial_23_737" cx="0" cy="0" r="1" gradientUnits="userSpaceOnUse" gradientTransform="translate(1487.74 390.624) rotate(-178.234) scale(145.341 171.098)">
<stop stop-color="#16425B" stop-opacity="0.898638"/>
<stop offset="1" stop-color="#16425B"/>
</radialGradient>
<linearGradient id="paint6_linear_23_737" x1="1024.09" y1="512.858" x2="1008.41" y2="759.245" gradientUnits="userSpaceOnUse">
<stop stop-opacity="0"/>
<stop offset="0.125" stop-color="#F4F3E4" stop-opacity="0.354861"/>
<stop offset="0.520833" stop-color="#E6E0AD" stop-opacity="0.496456"/>
<stop offset="1" stop-color="#E1DA9B" stop-opacity="0.543654"/>
</linearGradient>
<radialGradient id="paint7_radial_23_737" cx="0" cy="0" r="1" gradientUnits="userSpaceOnUse" gradientTransform="translate(1049.86 880.402) rotate(90.2686) scale(229.617 111.818)">
<stop stop-color="white"/>
<stop offset="1" stop-color="#F9E84F"/>
</radialGradient>
</defs>
</svg>
