<svg width="38" height="38" viewBox="0 0 38 38" fill="none" xmlns="http://www.w3.org/2000/svg">
<g clip-path="url(#clip0_18_1189)">
<path d="M10 0.833334V2.5M10 17.5V19.1667M3.51671 3.51667L4.70004 4.7M15.3 15.3L16.4834 16.4833M0.833374 10H2.50004M17.5 10H19.1667M3.51671 16.4833L4.70004 15.3M15.3 4.7L16.4834 3.51667M14.1667 10C14.1667 12.3012 12.3012 14.1667 10 14.1667C7.69885 14.1667 5.83337 12.3012 5.83337 10C5.83337 7.69881 7.69885 5.83333 10 5.83333C12.3012 5.83333 14.1667 7.69881 14.1667 10Z" stroke="#006FC8" stroke-width="2" stroke-linecap="round" stroke-linejoin="round"/>
</g>
<path d="M19.025 34.6865C16.5729 34.6865 14.7937 34.0674 14.7192 34.041C12.2199 33.1551 10.8436 32.6671 10.1358 31.1618C9.72735 30.2933 9.70392 29.3833 10.0572 28.118C10.3883 26.9324 11.0659 25.3263 12.3963 22.5744C12.4493 22.4649 13.7158 19.8545 15.5155 16.949C17.9791 12.9719 20.1635 10.4953 22.008 9.58777C22.4006 9.39474 23.126 9.18687 23.7913 9.18687C23.9489 9.18687 24.0995 9.1988 24.2384 9.222C24.3852 9.24649 24.8311 9.32094 25.2849 9.65158C25.3315 9.68542 25.5743 9.86847 25.7917 10.1459C26.174 10.6342 28.6997 15.3019 30.8466 19.7881C32.1582 22.5287 33.1845 24.8848 33.8973 26.7906C34.8392 29.3095 35.2071 30.9495 35.0554 31.9517C34.9552 32.6127 34.6414 32.9401 34.3959 33.0983C34.2565 33.1882 34.1176 33.2276 33.8135 33.3136C33.4484 33.4171 32.6902 33.6317 31.9306 33.6317C31.3663 33.6317 30.8935 33.5102 30.5255 33.2704C29.8523 32.8318 29.7061 32.1399 29.5514 31.4071C29.4934 31.1319 29.4275 30.8196 29.3275 30.4616C29.0413 29.4342 28.4457 27.2963 27.1344 26.5953C26.7954 26.4142 26.3706 26.3143 25.9385 26.3143C25.1648 26.3143 24.4637 26.6198 24.1086 27.1119C23.7058 27.6701 23.7348 28.4867 23.7521 28.9746C23.7793 29.7432 23.9976 30.3668 24.19 30.9172C24.4443 31.6443 24.7326 32.468 24.2627 33.2424C23.9311 33.789 23.4043 33.9623 23.1512 34.0458C21.8607 34.4709 20.4726 34.6865 19.0253 34.6865H19.025Z" fill="#006FC8"/>
<path d="M23.7913 9.99286C23.9079 9.99286 24.0212 10.0009 24.1282 10.0186C24.248 10.0386 24.5612 10.0912 24.8805 10.3235C24.8805 10.3235 25.0748 10.465 25.2368 10.6719C25.8382 11.4395 36.3321 30.9182 34.0258 32.4029C33.9746 32.4361 33.8597 32.4686 33.63 32.5334C33.2981 32.6275 32.597 32.826 31.9302 32.826C31.5505 32.826 31.1817 32.7616 30.8984 32.5772C30.3248 32.2037 30.3895 31.5254 30.0274 30.2257C29.7198 29.1213 29.0521 26.7249 27.454 25.8706C27.0013 25.6285 26.4702 25.5083 25.9378 25.5083C25.0021 25.5083 24.0623 25.8793 23.5343 26.6108C22.9628 27.4029 22.9997 28.4442 23.0196 29.0059C23.0878 30.9266 24.1417 31.9897 23.653 32.7948C23.4842 33.0729 23.2144 33.1834 22.9405 33.2737C21.5588 33.7287 20.2097 33.8805 19.025 33.8805C16.6554 33.8805 14.9433 33.2737 14.9433 33.2737C12.5512 32.4258 11.3553 32.0017 10.7864 30.7912C10.2069 29.5589 10.5362 28.1377 13.0431 22.9525C13.0431 22.9525 18.1628 12.3625 22.3074 10.3232C22.608 10.1753 23.2335 9.99254 23.7916 9.99254M23.7913 8.38153C23.0143 8.38153 22.1855 8.61808 21.7091 8.85269C20.5633 9.41633 19.3598 10.4688 18.0297 12.0705C17.0427 13.2587 15.9933 14.7476 14.9105 16.4959C13.0882 19.4375 11.8036 22.0852 11.7497 22.1967C10.3959 24.9969 9.70269 26.644 9.35699 27.8821C9.14927 28.6259 9.0605 29.2447 9.07779 29.829C9.09566 30.43 9.22867 30.9872 9.48502 31.5325C9.90279 32.4213 10.5535 33.0825 11.5329 33.6143C12.2984 34.03 13.2195 34.3565 14.4939 34.8083V34.8076C14.6114 34.8518 14.7371 34.8879 14.8768 34.9282C15.171 35.0129 15.4888 35.0912 15.8216 35.1608C16.8728 35.3809 17.9506 35.4928 19.0253 35.4928C20.5434 35.4928 22.0024 35.2659 23.3612 34.8183C23.6703 34.7164 24.3936 34.4783 24.8717 33.6903C25.2022 33.1457 25.3156 32.5163 25.2081 31.8199C25.1433 31.4 25.0062 31.0078 24.8735 30.6285C24.693 30.1125 24.5064 29.5789 24.4838 28.9437C24.4704 28.5673 24.4481 27.9376 24.6822 27.6134C24.8949 27.3185 25.3997 27.1203 25.9384 27.1203C26.2619 27.1203 26.573 27.1912 26.8141 27.3204C27.2155 27.5351 27.5908 28.0017 27.9297 28.7071C28.2702 29.4165 28.4849 30.1876 28.6273 30.6981C28.7196 31.0297 28.7799 31.3146 28.8379 31.5901C28.9209 31.9823 28.9991 32.3529 29.1476 32.7168C29.3668 33.253 29.7048 33.6729 30.1525 33.9646C30.635 34.2788 31.2336 34.4383 31.9308 34.4383C32.7834 34.4383 33.6022 34.2063 33.9957 34.0948C34.334 33.9991 34.5382 33.9411 34.7662 33.7944C35.0779 33.5937 35.624 33.1048 35.7784 32.0848C35.9559 30.9121 35.585 29.1847 34.5752 26.4848C33.8536 24.5554 32.8173 22.1761 31.4952 19.4133C30.1575 16.618 28.8787 14.1694 28.2353 12.9583C27.7959 12.1311 27.3883 11.3818 27.057 10.7914C26.5329 9.85815 26.4166 9.70959 26.3468 9.62064C26.3465 9.62 26.346 9.61968 26.3457 9.61935V9.45854L25.6897 8.98062C25.1011 8.55201 24.5348 8.45727 24.3488 8.42633C24.1736 8.397 23.9861 8.38218 23.7919 8.38218L23.7913 8.38153Z" fill="white"/>
<defs>
<clipPath id="clip0_18_1189">
<rect width="20" height="20" fill="white"/>
</clipPath>
</defs>
</svg>
