<svg width="2016" height="1598" viewBox="0 0 2016 1598" fill="none" xmlns="http://www.w3.org/2000/svg">
<g clip-path="url(#clip0_23_849)">
<g filter="url(#filter0_dii_23_849)">
<path d="M1853.62 475.155C1860.66 457.754 1885.64 458.772 1891.24 476.688L1911.24 540.574C1913.65 548.286 1920.47 553.788 1928.52 554.519L1994.07 560.47C2012.14 562.111 2018.86 585.033 2004.54 596.174L1949.75 638.798C1943.68 643.518 1940.85 651.297 1942.48 658.81L1957.29 727.308C1961.2 745.431 1940.49 758.668 1925.69 747.495L1874.35 708.737C1867.69 703.714 1858.62 703.345 1851.58 707.809L1797.26 742.264C1781.6 752.195 1762.03 737.317 1767.41 719.573L1787.74 652.506C1789.97 645.15 1787.79 637.167 1782.12 631.97L1730.98 585.03C1717.61 572.76 1726.18 550.461 1744.32 550.296L1810.14 549.696C1818.22 549.623 1825.46 544.694 1828.49 537.203L1853.62 475.155Z" fill="url(#paint0_radial_23_849)"/>
</g>
<g filter="url(#filter1_dii_23_849)">
<path d="M1687.7 905.451C1678.92 982.026 1655.09 1080.26 1419.82 1078.71C1184.56 1077.16 1218.01 944.966 1226.79 868.392C1235.58 791.818 1331.69 735.567 1456.16 748.358C1580.64 761.149 1696.49 828.877 1687.7 905.451Z" fill="url(#paint1_linear_23_849)"/>
<path d="M1619.99 661.925C1611.21 738.5 1587.38 836.73 1352.11 835.184C1116.85 833.639 1150.3 701.44 1159.08 624.866C1167.87 548.292 1263.98 492.041 1388.45 504.832C1512.93 517.623 1628.78 585.351 1619.99 661.925Z" fill="url(#paint2_linear_23_849)"/>
<ellipse cx="260.065" cy="202.293" rx="260.065" ry="202.293" transform="matrix(0.985355 0.170517 -0.189714 0.981839 1235.36 288.895)" fill="url(#paint3_radial_23_849)"/>
<path d="M1276.17 456.955C1298 508.004 1252.25 578.756 1174.22 608.639C1096.19 638.521 1004.89 628.905 983.065 577.856C961.236 526.807 1006.98 456.054 1085.01 426.172C1163.04 396.29 1254.34 405.906 1276.17 456.955Z" fill="url(#paint4_linear_23_849)"/>
<path d="M1267.15 971.455C1175.91 1048.94 1027.23 1032.96 935.08 935.77C842.929 838.578 842.197 696.975 933.445 619.492C1024.69 542.008 1173.37 557.985 1265.52 655.177C1357.67 752.369 1358.4 893.971 1267.15 971.455Z" fill="url(#paint5_linear_23_849)"/>
<path d="M1628.69 981.452C1532.53 966.691 1504.02 867.351 1524.49 747.956C1567.87 636.184 1628.04 568.477 1724.2 583.238C1820.36 597.998 1877.74 692.236 1857.28 811.631C1836.81 931.027 1724.85 996.213 1628.69 981.452Z" fill="url(#paint6_radial_23_849)"/>
</g>
<g filter="url(#filter2_dii_23_849)">
<path d="M895.727 578.395C936.852 785.712 1373.09 756.116 1090.73 868.805C923.816 935.419 734.504 854.11 667.89 687.196C601.277 520.283 682.586 330.971 849.499 264.358C1137.77 149.311 830.628 357.508 895.727 578.395Z" fill="url(#paint7_radial_23_849)"/>
</g>
<g filter="url(#filter3_dii_23_849)">
<path d="M904.702 1134.45C895.916 1211.03 872.087 1309.26 636.822 1307.71C401.558 1306.16 435.006 1173.97 443.792 1097.39C452.578 1020.82 548.688 964.567 673.162 977.358C797.637 990.149 913.488 1057.88 904.702 1134.45Z" fill="url(#paint8_linear_23_849)"/>
<path d="M836.993 890.925C828.207 967.499 804.377 1065.73 569.113 1064.18C333.849 1062.64 367.297 930.44 376.083 853.866C384.869 777.292 480.978 721.041 605.453 733.832C729.928 746.623 845.779 814.351 836.993 890.925Z" fill="url(#paint9_linear_23_849)"/>
<ellipse cx="260.065" cy="202.293" rx="260.065" ry="202.293" transform="matrix(0.985355 0.170517 -0.189714 0.981839 452.359 517.895)" fill="url(#paint10_radial_23_849)"/>
<path d="M493.167 685.955C514.995 737.004 469.254 807.756 391.223 837.639C313.193 867.521 221.893 857.905 200.065 806.856C178.236 755.807 223.978 685.054 302.008 655.172C380.038 625.29 471.339 634.906 493.167 685.955Z" fill="url(#paint11_linear_23_849)"/>
<path d="M484.154 1200.46C392.906 1277.94 244.232 1261.96 152.08 1164.77C59.9291 1067.58 59.1968 925.975 150.445 848.492C241.693 771.008 390.367 786.985 482.519 884.177C574.67 981.369 575.402 1122.97 484.154 1200.46Z" fill="url(#paint12_linear_23_849)"/>
<path d="M845.686 1210.45C749.526 1195.69 721.024 1096.35 741.487 976.956C784.873 865.184 845.041 797.477 941.201 812.238C1037.36 826.998 1094.74 921.236 1074.28 1040.63C1053.81 1160.03 941.846 1225.21 845.686 1210.45Z" fill="url(#paint13_radial_23_849)"/>
</g>
<g filter="url(#filter4_dii_23_849)">
<path d="M191.401 693.878C201.384 677.98 225.793 683.354 228.177 701.975L236.676 768.375C237.702 776.39 243.451 783.001 251.247 785.129L314.745 802.465C332.249 807.244 334.855 830.989 318.804 839.451L257.395 871.824C250.595 875.409 246.451 882.573 246.735 890.254L249.321 960.286C250.005 978.816 227.29 988.22 214.676 974.63L170.914 927.481C165.244 921.372 156.378 919.42 148.666 922.583L89.1501 946.995C71.9949 954.031 55.3292 935.957 63.7317 919.428L95.4891 856.956C98.9723 850.104 98.2204 841.862 93.5548 835.754L51.4187 780.585C40.4049 766.164 52.742 745.709 70.6351 748.723L135.543 759.656C143.511 760.998 151.505 757.413 155.802 750.57L191.401 693.878Z" fill="url(#paint14_radial_23_849)"/>
</g>
<g filter="url(#filter5_dii_23_849)">
<path d="M1219.3 1016.22C1221.86 997.619 1246.32 992.473 1256.15 1008.46L1291.22 1065.48C1295.46 1072.37 1303.42 1076.03 1311.4 1074.76L1376.4 1064.43C1394.32 1061.58 1406.47 1082.15 1395.32 1096.47L1352.67 1151.24C1347.95 1157.31 1347.12 1165.54 1350.54 1172.43L1381.72 1235.19C1389.97 1251.8 1373.13 1269.72 1356.04 1262.52L1296.76 1237.56C1289.08 1234.32 1280.19 1236.19 1274.47 1242.25L1230.27 1288.99C1217.53 1302.46 1194.9 1292.84 1195.76 1274.32L1198.99 1204.32C1199.35 1196.64 1195.27 1189.43 1188.51 1185.79L1127.4 1152.84C1111.43 1144.23 1114.26 1120.51 1131.8 1115.9L1195.46 1099.15C1203.28 1097.1 1209.09 1090.54 1210.19 1082.53L1219.3 1016.22Z" fill="url(#paint15_radial_23_849)"/>
</g>
</g>
<defs>
<filter id="filter0_dii_23_849" x="1684.46" y="460.66" width="329.822" height="330.945" filterUnits="userSpaceOnUse" color-interpolation-filters="sRGB">
<feFlood flood-opacity="0" result="BackgroundImageFix"/>
<feColorMatrix in="SourceAlpha" type="matrix" values="0 0 0 0 0 0 0 0 0 0 0 0 0 0 0 0 0 0 127 0" result="hardAlpha"/>
<feOffset dx="-20" dy="20"/>
<feGaussianBlur stdDeviation="10"/>
<feComposite in2="hardAlpha" operator="out"/>
<feColorMatrix type="matrix" values="0 0 0 0 0 0 0 0 0 0 0 0 0 0 0 0 0 0 0.25 0"/>
<feBlend mode="normal" in2="BackgroundImageFix" result="effect1_dropShadow_23_849"/>
<feBlend mode="normal" in="SourceGraphic" in2="effect1_dropShadow_23_849" result="shape"/>
<feColorMatrix in="SourceAlpha" type="matrix" values="0 0 0 0 0 0 0 0 0 0 0 0 0 0 0 0 0 0 127 0" result="hardAlpha"/>
<feOffset dx="2" dy="-2"/>
<feGaussianBlur stdDeviation="1"/>
<feComposite in2="hardAlpha" operator="arithmetic" k2="-1" k3="1"/>
<feColorMatrix type="matrix" values="0 0 0 0 0 0 0 0 0 0 0 0 0 0 0 0 0 0 0.25 0"/>
<feBlend mode="normal" in2="shape" result="effect2_innerShadow_23_849"/>
<feColorMatrix in="SourceAlpha" type="matrix" values="0 0 0 0 0 0 0 0 0 0 0 0 0 0 0 0 0 0 127 0" result="hardAlpha"/>
<feOffset dx="-2" dy="2"/>
<feGaussianBlur stdDeviation="1"/>
<feComposite in2="hardAlpha" operator="arithmetic" k2="-1" k3="1"/>
<feColorMatrix type="matrix" values="0 0 0 0 1 0 0 0 0 1 0 0 0 0 1 0 0 0 0.25 0"/>
<feBlend mode="normal" in2="effect2_innerShadow_23_849" result="effect3_innerShadow_23_849"/>
</filter>
<filter id="filter1_dii_23_849" x="825.484" y="326.305" width="1037.92" height="792.422" filterUnits="userSpaceOnUse" color-interpolation-filters="sRGB">
<feFlood flood-opacity="0" result="BackgroundImageFix"/>
<feColorMatrix in="SourceAlpha" type="matrix" values="0 0 0 0 0 0 0 0 0 0 0 0 0 0 0 0 0 0 127 0" result="hardAlpha"/>
<feOffset dx="-20" dy="20"/>
<feGaussianBlur stdDeviation="10"/>
<feComposite in2="hardAlpha" operator="out"/>
<feColorMatrix type="matrix" values="0 0 0 0 0 0 0 0 0 0 0 0 0 0 0 0 0 0 0.25 0"/>
<feBlend mode="normal" in2="BackgroundImageFix" result="effect1_dropShadow_23_849"/>
<feBlend mode="normal" in="SourceGraphic" in2="effect1_dropShadow_23_849" result="shape"/>
<feColorMatrix in="SourceAlpha" type="matrix" values="0 0 0 0 0 0 0 0 0 0 0 0 0 0 0 0 0 0 127 0" result="hardAlpha"/>
<feOffset dx="2" dy="-2"/>
<feGaussianBlur stdDeviation="1"/>
<feComposite in2="hardAlpha" operator="arithmetic" k2="-1" k3="1"/>
<feColorMatrix type="matrix" values="0 0 0 0 0 0 0 0 0 0 0 0 0 0 0 0 0 0 0.25 0"/>
<feBlend mode="normal" in2="shape" result="effect2_innerShadow_23_849"/>
<feColorMatrix in="SourceAlpha" type="matrix" values="0 0 0 0 0 0 0 0 0 0 0 0 0 0 0 0 0 0 127 0" result="hardAlpha"/>
<feOffset dx="-2" dy="2"/>
<feGaussianBlur stdDeviation="1"/>
<feComposite in2="hardAlpha" operator="arithmetic" k2="-1" k3="1"/>
<feColorMatrix type="matrix" values="0 0 0 0 1 0 0 0 0 1 0 0 0 0 1 0 0 0 0.25 0"/>
<feBlend mode="normal" in2="effect2_innerShadow_23_849" result="effect3_innerShadow_23_849"/>
</filter>
<filter id="filter2_dii_23_849" x="604.625" y="229.625" width="582.631" height="702.445" filterUnits="userSpaceOnUse" color-interpolation-filters="sRGB">
<feFlood flood-opacity="0" result="BackgroundImageFix"/>
<feColorMatrix in="SourceAlpha" type="matrix" values="0 0 0 0 0 0 0 0 0 0 0 0 0 0 0 0 0 0 127 0" result="hardAlpha"/>
<feOffset dx="-20" dy="20"/>
<feGaussianBlur stdDeviation="10"/>
<feComposite in2="hardAlpha" operator="out"/>
<feColorMatrix type="matrix" values="0 0 0 0 0 0 0 0 0 0 0 0 0 0 0 0 0 0 0.25 0"/>
<feBlend mode="normal" in2="BackgroundImageFix" result="effect1_dropShadow_23_849"/>
<feBlend mode="normal" in="SourceGraphic" in2="effect1_dropShadow_23_849" result="shape"/>
<feColorMatrix in="SourceAlpha" type="matrix" values="0 0 0 0 0 0 0 0 0 0 0 0 0 0 0 0 0 0 127 0" result="hardAlpha"/>
<feOffset dx="2" dy="-2"/>
<feGaussianBlur stdDeviation="1"/>
<feComposite in2="hardAlpha" operator="arithmetic" k2="-1" k3="1"/>
<feColorMatrix type="matrix" values="0 0 0 0 0 0 0 0 0 0 0 0 0 0 0 0 0 0 0.25 0"/>
<feBlend mode="normal" in2="shape" result="effect2_innerShadow_23_849"/>
<feColorMatrix in="SourceAlpha" type="matrix" values="0 0 0 0 0 0 0 0 0 0 0 0 0 0 0 0 0 0 127 0" result="hardAlpha"/>
<feOffset dx="-2" dy="2"/>
<feGaussianBlur stdDeviation="1"/>
<feComposite in2="hardAlpha" operator="arithmetic" k2="-1" k3="1"/>
<feColorMatrix type="matrix" values="0 0 0 0 1 0 0 0 0 1 0 0 0 0 1 0 0 0 0.25 0"/>
<feBlend mode="normal" in2="effect2_innerShadow_23_849" result="effect3_innerShadow_23_849"/>
</filter>
<filter id="filter3_dii_23_849" x="42.4844" y="555.305" width="1037.92" height="792.422" filterUnits="userSpaceOnUse" color-interpolation-filters="sRGB">
<feFlood flood-opacity="0" result="BackgroundImageFix"/>
<feColorMatrix in="SourceAlpha" type="matrix" values="0 0 0 0 0 0 0 0 0 0 0 0 0 0 0 0 0 0 127 0" result="hardAlpha"/>
<feOffset dx="-20" dy="20"/>
<feGaussianBlur stdDeviation="10"/>
<feComposite in2="hardAlpha" operator="out"/>
<feColorMatrix type="matrix" values="0 0 0 0 0 0 0 0 0 0 0 0 0 0 0 0 0 0 0.25 0"/>
<feBlend mode="normal" in2="BackgroundImageFix" result="effect1_dropShadow_23_849"/>
<feBlend mode="normal" in="SourceGraphic" in2="effect1_dropShadow_23_849" result="shape"/>
<feColorMatrix in="SourceAlpha" type="matrix" values="0 0 0 0 0 0 0 0 0 0 0 0 0 0 0 0 0 0 127 0" result="hardAlpha"/>
<feOffset dx="2" dy="-2"/>
<feGaussianBlur stdDeviation="1"/>
<feComposite in2="hardAlpha" operator="arithmetic" k2="-1" k3="1"/>
<feColorMatrix type="matrix" values="0 0 0 0 0 0 0 0 0 0 0 0 0 0 0 0 0 0 0.25 0"/>
<feBlend mode="normal" in2="shape" result="effect2_innerShadow_23_849"/>
<feColorMatrix in="SourceAlpha" type="matrix" values="0 0 0 0 0 0 0 0 0 0 0 0 0 0 0 0 0 0 127 0" result="hardAlpha"/>
<feOffset dx="-2" dy="2"/>
<feGaussianBlur stdDeviation="1"/>
<feComposite in2="hardAlpha" operator="arithmetic" k2="-1" k3="1"/>
<feColorMatrix type="matrix" values="0 0 0 0 1 0 0 0 0 1 0 0 0 0 1 0 0 0 0.25 0"/>
<feBlend mode="normal" in2="effect2_innerShadow_23_849" result="effect3_innerShadow_23_849"/>
</filter>
<filter id="filter4_dii_23_849" x="7.25" y="682.496" width="324.23" height="338.574" filterUnits="userSpaceOnUse" color-interpolation-filters="sRGB">
<feFlood flood-opacity="0" result="BackgroundImageFix"/>
<feColorMatrix in="SourceAlpha" type="matrix" values="0 0 0 0 0 0 0 0 0 0 0 0 0 0 0 0 0 0 127 0" result="hardAlpha"/>
<feOffset dx="-20" dy="20"/>
<feGaussianBlur stdDeviation="10"/>
<feComposite in2="hardAlpha" operator="out"/>
<feColorMatrix type="matrix" values="0 0 0 0 0 0 0 0 0 0 0 0 0 0 0 0 0 0 0.25 0"/>
<feBlend mode="normal" in2="BackgroundImageFix" result="effect1_dropShadow_23_849"/>
<feBlend mode="normal" in="SourceGraphic" in2="effect1_dropShadow_23_849" result="shape"/>
<feColorMatrix in="SourceAlpha" type="matrix" values="0 0 0 0 0 0 0 0 0 0 0 0 0 0 0 0 0 0 127 0" result="hardAlpha"/>
<feOffset dx="2" dy="-2"/>
<feGaussianBlur stdDeviation="1"/>
<feComposite in2="hardAlpha" operator="arithmetic" k2="-1" k3="1"/>
<feColorMatrix type="matrix" values="0 0 0 0 0 0 0 0 0 0 0 0 0 0 0 0 0 0 0.25 0"/>
<feBlend mode="normal" in2="shape" result="effect2_innerShadow_23_849"/>
<feColorMatrix in="SourceAlpha" type="matrix" values="0 0 0 0 0 0 0 0 0 0 0 0 0 0 0 0 0 0 127 0" result="hardAlpha"/>
<feOffset dx="-2" dy="2"/>
<feGaussianBlur stdDeviation="1"/>
<feComposite in2="hardAlpha" operator="arithmetic" k2="-1" k3="1"/>
<feColorMatrix type="matrix" values="0 0 0 0 1 0 0 0 0 1 0 0 0 0 1 0 0 0 0.25 0"/>
<feBlend mode="normal" in2="effect2_innerShadow_23_849" result="effect3_innerShadow_23_849"/>
</filter>
<filter id="filter5_dii_23_849" x="1076.89" y="996.926" width="324.717" height="338.367" filterUnits="userSpaceOnUse" color-interpolation-filters="sRGB">
<feFlood flood-opacity="0" result="BackgroundImageFix"/>
<feColorMatrix in="SourceAlpha" type="matrix" values="0 0 0 0 0 0 0 0 0 0 0 0 0 0 0 0 0 0 127 0" result="hardAlpha"/>
<feOffset dx="-20" dy="20"/>
<feGaussianBlur stdDeviation="10"/>
<feComposite in2="hardAlpha" operator="out"/>
<feColorMatrix type="matrix" values="0 0 0 0 0 0 0 0 0 0 0 0 0 0 0 0 0 0 0.25 0"/>
<feBlend mode="normal" in2="BackgroundImageFix" result="effect1_dropShadow_23_849"/>
<feBlend mode="normal" in="SourceGraphic" in2="effect1_dropShadow_23_849" result="shape"/>
<feColorMatrix in="SourceAlpha" type="matrix" values="0 0 0 0 0 0 0 0 0 0 0 0 0 0 0 0 0 0 127 0" result="hardAlpha"/>
<feOffset dx="2" dy="-2"/>
<feGaussianBlur stdDeviation="1"/>
<feComposite in2="hardAlpha" operator="arithmetic" k2="-1" k3="1"/>
<feColorMatrix type="matrix" values="0 0 0 0 0 0 0 0 0 0 0 0 0 0 0 0 0 0 0.25 0"/>
<feBlend mode="normal" in2="shape" result="effect2_innerShadow_23_849"/>
<feColorMatrix in="SourceAlpha" type="matrix" values="0 0 0 0 0 0 0 0 0 0 0 0 0 0 0 0 0 0 127 0" result="hardAlpha"/>
<feOffset dx="-2" dy="2"/>
<feGaussianBlur stdDeviation="1"/>
<feComposite in2="hardAlpha" operator="arithmetic" k2="-1" k3="1"/>
<feColorMatrix type="matrix" values="0 0 0 0 1 0 0 0 0 1 0 0 0 0 1 0 0 0 0.25 0"/>
<feBlend mode="normal" in2="effect2_innerShadow_23_849" result="effect3_innerShadow_23_849"/>
</filter>
<radialGradient id="paint0_radial_23_849" cx="0" cy="0" r="1" gradientUnits="userSpaceOnUse" gradientTransform="translate(1972.51 529.216) rotate(61.7155) scale(124.832 122.889)">
<stop stop-color="white"/>
<stop offset="1" stop-color="#F9E84F"/>
</radialGradient>
<linearGradient id="paint1_linear_23_849" x1="1420.15" y1="1398.03" x2="1450.02" y2="871.082" gradientUnits="userSpaceOnUse">
<stop offset="1" stop-color="#16425B"/>
</linearGradient>
<linearGradient id="paint2_linear_23_849" x1="1420.15" y1="1398.03" x2="1450.02" y2="871.082" gradientUnits="userSpaceOnUse">
<stop offset="1" stop-color="#16425B"/>
</linearGradient>
<radialGradient id="paint3_radial_23_849" cx="0" cy="0" r="1" gradientUnits="userSpaceOnUse" gradientTransform="translate(476.104 42.1348) rotate(155.688) scale(249.475 307.742)">
<stop stop-color="#16425B" stop-opacity="0.898638"/>
<stop offset="1" stop-color="#16425B"/>
</radialGradient>
<linearGradient id="paint4_linear_23_849" x1="1103.47" y1="420.694" x2="1181.03" y2="524.407" gradientUnits="userSpaceOnUse">
<stop offset="1" stop-color="#16425B"/>
</linearGradient>
<linearGradient id="paint5_linear_23_849" x1="793.806" y1="1134.46" x2="1072.96" y2="847.8" gradientUnits="userSpaceOnUse">
<stop offset="1" stop-color="#16425B"/>
</linearGradient>
<radialGradient id="paint6_radial_23_849" cx="0" cy="0" r="1" gradientUnits="userSpaceOnUse" gradientTransform="translate(1852.97 593.518) rotate(-178.234) scale(145.341 171.098)">
<stop stop-color="#16425B" stop-opacity="0.898638"/>
<stop offset="1" stop-color="#16425B"/>
</radialGradient>
<radialGradient id="paint7_radial_23_849" cx="0" cy="0" r="1" gradientUnits="userSpaceOnUse" gradientTransform="translate(941.077 410.778) rotate(44.4939) scale(196.053 162.325)">
<stop stop-color="white"/>
<stop offset="1" stop-color="#F9E84F"/>
</radialGradient>
<linearGradient id="paint8_linear_23_849" x1="637.146" y1="1627.03" x2="667.02" y2="1100.08" gradientUnits="userSpaceOnUse">
<stop offset="1" stop-color="#16425B"/>
</linearGradient>
<linearGradient id="paint9_linear_23_849" x1="637.146" y1="1627.03" x2="667.02" y2="1100.08" gradientUnits="userSpaceOnUse">
<stop offset="1" stop-color="#16425B"/>
</linearGradient>
<radialGradient id="paint10_radial_23_849" cx="0" cy="0" r="1" gradientUnits="userSpaceOnUse" gradientTransform="translate(476.104 42.1348) rotate(155.688) scale(249.475 307.741)">
<stop stop-color="#16425B" stop-opacity="0.898638"/>
<stop offset="1" stop-color="#16425B"/>
</radialGradient>
<linearGradient id="paint11_linear_23_849" x1="320.474" y1="649.694" x2="398.03" y2="753.407" gradientUnits="userSpaceOnUse">
<stop offset="1" stop-color="#16425B"/>
</linearGradient>
<linearGradient id="paint12_linear_23_849" x1="10.8061" y1="1363.46" x2="289.959" y2="1076.8" gradientUnits="userSpaceOnUse">
<stop offset="1" stop-color="#16425B"/>
</linearGradient>
<radialGradient id="paint13_radial_23_849" cx="0" cy="0" r="1" gradientUnits="userSpaceOnUse" gradientTransform="translate(1069.97 822.518) rotate(-178.234) scale(145.341 171.098)">
<stop stop-color="#16425B" stop-opacity="0.898638"/>
<stop offset="1" stop-color="#16425B"/>
</radialGradient>
<radialGradient id="paint14_radial_23_849" cx="0" cy="0" r="1" gradientUnits="userSpaceOnUse" gradientTransform="translate(298.989 767.92) rotate(71.7987) scale(124.832 122.889)">
<stop stop-color="white"/>
<stop offset="1" stop-color="#F9E84F"/>
</radialGradient>
<radialGradient id="paint15_radial_23_849" cx="0" cy="0" r="1" gradientUnits="userSpaceOnUse" gradientTransform="translate(1347.83 1039.43) rotate(47.5) scale(124.832 122.889)">
<stop stop-color="white"/>
<stop offset="1" stop-color="#F9E84F"/>
</radialGradient>
<clipPath id="clip0_23_849">
<rect width="2016" height="1598" fill="white"/>
</clipPath>
</defs>
</svg>
