<svg width="2016" height="1598" viewBox="0 0 2016 1598" fill="none" xmlns="http://www.w3.org/2000/svg">
<g clip-path="url(#clip0_23_925)">
<g filter="url(#filter0_dii_23_925)">
<path d="M1687.7 905.451C1678.92 982.026 1655.09 1080.26 1419.82 1078.71C1184.56 1077.16 1218.01 944.966 1226.79 868.392C1235.58 791.818 1331.69 735.567 1456.16 748.358C1580.64 761.149 1696.49 828.877 1687.7 905.451Z" fill="url(#paint0_linear_23_925)"/>
<path d="M1619.99 661.925C1611.21 738.5 1587.38 836.73 1352.11 835.184C1116.85 833.639 1150.3 701.44 1159.08 624.866C1167.87 548.292 1263.98 492.041 1388.45 504.832C1512.93 517.623 1628.78 585.351 1619.99 661.925Z" fill="url(#paint1_linear_23_925)"/>
<ellipse cx="260.065" cy="202.293" rx="260.065" ry="202.293" transform="matrix(0.985355 0.170517 -0.189714 0.981839 1235.36 288.895)" fill="url(#paint2_radial_23_925)"/>
<path d="M1276.17 456.955C1298 508.004 1252.25 578.756 1174.22 608.639C1096.19 638.521 1004.89 628.905 983.065 577.856C961.236 526.807 1006.98 456.054 1085.01 426.172C1163.04 396.29 1254.34 405.906 1276.17 456.955Z" fill="url(#paint3_linear_23_925)"/>
<path d="M1267.16 971.455C1175.91 1048.94 1027.23 1032.96 935.081 935.77C842.93 838.578 842.198 696.975 933.446 619.492C1024.69 542.008 1173.37 557.985 1265.52 655.177C1357.67 752.369 1358.4 893.971 1267.16 971.455Z" fill="url(#paint4_linear_23_925)"/>
<path d="M1628.69 981.452C1532.52 966.691 1504.02 867.351 1524.49 747.956C1567.87 636.184 1628.04 568.477 1724.2 583.238C1820.36 597.998 1877.74 692.236 1857.28 811.631C1836.81 931.027 1724.85 996.213 1628.69 981.452Z" fill="url(#paint5_radial_23_925)"/>
</g>
<g filter="url(#filter1_dii_23_925)">
<path d="M895.727 578.395C936.852 785.712 1373.09 756.116 1090.73 868.805C923.816 935.419 734.504 854.11 667.89 687.196C601.277 520.283 682.586 330.971 849.499 264.358C1137.77 149.311 830.628 357.508 895.727 578.395Z" fill="url(#paint6_radial_23_925)"/>
</g>
<g filter="url(#filter2_dii_23_925)">
<path d="M904.702 1134.45C895.916 1211.03 872.087 1309.26 636.822 1307.71C401.558 1306.16 435.006 1173.97 443.792 1097.39C452.578 1020.82 548.688 964.567 673.162 977.358C797.637 990.149 913.488 1057.88 904.702 1134.45Z" fill="url(#paint7_linear_23_925)"/>
<path d="M836.993 890.925C828.207 967.499 804.377 1065.73 569.113 1064.18C333.849 1062.64 367.297 930.44 376.083 853.866C384.869 777.292 480.978 721.041 605.453 733.832C729.928 746.623 845.779 814.351 836.993 890.925Z" fill="url(#paint8_linear_23_925)"/>
<ellipse cx="260.065" cy="202.293" rx="260.065" ry="202.293" transform="matrix(0.985355 0.170517 -0.189714 0.981839 452.359 517.895)" fill="url(#paint9_radial_23_925)"/>
<path d="M493.167 685.955C514.995 737.004 469.254 807.756 391.223 837.639C313.193 867.521 221.893 857.905 200.065 806.856C178.236 755.807 223.978 685.054 302.008 655.172C380.038 625.29 471.339 634.906 493.167 685.955Z" fill="url(#paint10_linear_23_925)"/>
<path d="M484.154 1200.46C392.906 1277.94 244.232 1261.96 152.08 1164.77C59.9291 1067.58 59.1968 925.975 150.445 848.492C241.693 771.008 390.367 786.985 482.519 884.177C574.67 981.369 575.402 1122.97 484.154 1200.46Z" fill="url(#paint11_linear_23_925)"/>
<path d="M845.685 1210.45C749.525 1195.69 721.023 1096.35 741.486 976.956C784.872 865.184 845.04 797.477 941.2 812.238C1037.36 826.998 1094.74 921.236 1074.28 1040.63C1053.81 1160.03 941.845 1225.21 845.685 1210.45Z" fill="url(#paint12_radial_23_925)"/>
</g>
<g filter="url(#filter3_dii_23_925)">
<path d="M968.87 1443.64C968.87 1483.41 934.747 1517.46 897.126 1517.46C859.505 1517.46 826.158 1483.41 826.158 1443.64C826.158 1413.6 865.286 1368.96 886.823 1359.36C892.933 1356.63 901.307 1356.85 907.356 1359.71C928.457 1369.67 968.87 1412.21 968.87 1443.64Z" fill="#50B1D8"/>
</g>
<g filter="url(#filter4_f_23_925)">
<ellipse cx="847.657" cy="1457.47" rx="17.8714" ry="20.2024" fill="white"/>
</g>
<g filter="url(#filter5_dii_23_925)">
<path d="M1206.94 1245.9C1206.94 1285.66 1172.81 1319.71 1135.19 1319.71C1097.57 1319.71 1064.23 1285.66 1064.23 1245.9C1064.23 1215.86 1103.35 1171.21 1124.89 1161.61C1131 1158.89 1139.37 1159.1 1145.42 1161.96C1166.52 1171.92 1206.94 1214.47 1206.94 1245.9Z" fill="#50B1D8"/>
</g>
<g filter="url(#filter6_f_23_925)">
<ellipse cx="1085.72" cy="1259.73" rx="17.8714" ry="20.2024" fill="white"/>
</g>
<g filter="url(#filter7_dii_23_925)">
<path d="M956.712 1048.15C956.712 1087.91 922.588 1121.96 884.968 1121.96C847.347 1121.96 814 1087.91 814 1048.15C814 1018.11 853.128 973.463 874.665 963.861C880.774 961.137 889.149 961.354 895.198 964.209C916.299 974.171 956.712 1016.72 956.712 1048.15Z" fill="#50B1D8"/>
</g>
<g filter="url(#filter8_f_23_925)">
<ellipse cx="835.498" cy="1061.98" rx="17.8714" ry="20.2024" fill="white"/>
</g>
</g>
<defs>
<filter id="filter0_dii_23_925" x="825.486" y="326.305" width="1037.92" height="792.422" filterUnits="userSpaceOnUse" color-interpolation-filters="sRGB">
<feFlood flood-opacity="0" result="BackgroundImageFix"/>
<feColorMatrix in="SourceAlpha" type="matrix" values="0 0 0 0 0 0 0 0 0 0 0 0 0 0 0 0 0 0 127 0" result="hardAlpha"/>
<feOffset dx="-20" dy="20"/>
<feGaussianBlur stdDeviation="10"/>
<feComposite in2="hardAlpha" operator="out"/>
<feColorMatrix type="matrix" values="0 0 0 0 0 0 0 0 0 0 0 0 0 0 0 0 0 0 0.25 0"/>
<feBlend mode="normal" in2="BackgroundImageFix" result="effect1_dropShadow_23_925"/>
<feBlend mode="normal" in="SourceGraphic" in2="effect1_dropShadow_23_925" result="shape"/>
<feColorMatrix in="SourceAlpha" type="matrix" values="0 0 0 0 0 0 0 0 0 0 0 0 0 0 0 0 0 0 127 0" result="hardAlpha"/>
<feOffset dx="2" dy="-2"/>
<feGaussianBlur stdDeviation="1"/>
<feComposite in2="hardAlpha" operator="arithmetic" k2="-1" k3="1"/>
<feColorMatrix type="matrix" values="0 0 0 0 0 0 0 0 0 0 0 0 0 0 0 0 0 0 0.25 0"/>
<feBlend mode="normal" in2="shape" result="effect2_innerShadow_23_925"/>
<feColorMatrix in="SourceAlpha" type="matrix" values="0 0 0 0 0 0 0 0 0 0 0 0 0 0 0 0 0 0 127 0" result="hardAlpha"/>
<feOffset dx="-2" dy="2"/>
<feGaussianBlur stdDeviation="1"/>
<feComposite in2="hardAlpha" operator="arithmetic" k2="-1" k3="1"/>
<feColorMatrix type="matrix" values="0 0 0 0 1 0 0 0 0 1 0 0 0 0 1 0 0 0 0.25 0"/>
<feBlend mode="normal" in2="effect2_innerShadow_23_925" result="effect3_innerShadow_23_925"/>
</filter>
<filter id="filter1_dii_23_925" x="604.625" y="229.625" width="582.631" height="702.445" filterUnits="userSpaceOnUse" color-interpolation-filters="sRGB">
<feFlood flood-opacity="0" result="BackgroundImageFix"/>
<feColorMatrix in="SourceAlpha" type="matrix" values="0 0 0 0 0 0 0 0 0 0 0 0 0 0 0 0 0 0 127 0" result="hardAlpha"/>
<feOffset dx="-20" dy="20"/>
<feGaussianBlur stdDeviation="10"/>
<feComposite in2="hardAlpha" operator="out"/>
<feColorMatrix type="matrix" values="0 0 0 0 0 0 0 0 0 0 0 0 0 0 0 0 0 0 0.25 0"/>
<feBlend mode="normal" in2="BackgroundImageFix" result="effect1_dropShadow_23_925"/>
<feBlend mode="normal" in="SourceGraphic" in2="effect1_dropShadow_23_925" result="shape"/>
<feColorMatrix in="SourceAlpha" type="matrix" values="0 0 0 0 0 0 0 0 0 0 0 0 0 0 0 0 0 0 127 0" result="hardAlpha"/>
<feOffset dx="2" dy="-2"/>
<feGaussianBlur stdDeviation="1"/>
<feComposite in2="hardAlpha" operator="arithmetic" k2="-1" k3="1"/>
<feColorMatrix type="matrix" values="0 0 0 0 0 0 0 0 0 0 0 0 0 0 0 0 0 0 0.25 0"/>
<feBlend mode="normal" in2="shape" result="effect2_innerShadow_23_925"/>
<feColorMatrix in="SourceAlpha" type="matrix" values="0 0 0 0 0 0 0 0 0 0 0 0 0 0 0 0 0 0 127 0" result="hardAlpha"/>
<feOffset dx="-2" dy="2"/>
<feGaussianBlur stdDeviation="1"/>
<feComposite in2="hardAlpha" operator="arithmetic" k2="-1" k3="1"/>
<feColorMatrix type="matrix" values="0 0 0 0 1 0 0 0 0 1 0 0 0 0 1 0 0 0 0.25 0"/>
<feBlend mode="normal" in2="effect2_innerShadow_23_925" result="effect3_innerShadow_23_925"/>
</filter>
<filter id="filter2_dii_23_925" x="42.4844" y="555.305" width="1037.92" height="792.422" filterUnits="userSpaceOnUse" color-interpolation-filters="sRGB">
<feFlood flood-opacity="0" result="BackgroundImageFix"/>
<feColorMatrix in="SourceAlpha" type="matrix" values="0 0 0 0 0 0 0 0 0 0 0 0 0 0 0 0 0 0 127 0" result="hardAlpha"/>
<feOffset dx="-20" dy="20"/>
<feGaussianBlur stdDeviation="10"/>
<feComposite in2="hardAlpha" operator="out"/>
<feColorMatrix type="matrix" values="0 0 0 0 0 0 0 0 0 0 0 0 0 0 0 0 0 0 0.25 0"/>
<feBlend mode="normal" in2="BackgroundImageFix" result="effect1_dropShadow_23_925"/>
<feBlend mode="normal" in="SourceGraphic" in2="effect1_dropShadow_23_925" result="shape"/>
<feColorMatrix in="SourceAlpha" type="matrix" values="0 0 0 0 0 0 0 0 0 0 0 0 0 0 0 0 0 0 127 0" result="hardAlpha"/>
<feOffset dx="2" dy="-2"/>
<feGaussianBlur stdDeviation="1"/>
<feComposite in2="hardAlpha" operator="arithmetic" k2="-1" k3="1"/>
<feColorMatrix type="matrix" values="0 0 0 0 0 0 0 0 0 0 0 0 0 0 0 0 0 0 0.25 0"/>
<feBlend mode="normal" in2="shape" result="effect2_innerShadow_23_925"/>
<feColorMatrix in="SourceAlpha" type="matrix" values="0 0 0 0 0 0 0 0 0 0 0 0 0 0 0 0 0 0 127 0" result="hardAlpha"/>
<feOffset dx="-2" dy="2"/>
<feGaussianBlur stdDeviation="1"/>
<feComposite in2="hardAlpha" operator="arithmetic" k2="-1" k3="1"/>
<feColorMatrix type="matrix" values="0 0 0 0 1 0 0 0 0 1 0 0 0 0 1 0 0 0 0.25 0"/>
<feBlend mode="normal" in2="effect2_innerShadow_23_925" result="effect3_innerShadow_23_925"/>
</filter>
<filter id="filter3_dii_23_925" x="786.158" y="1357.43" width="184.713" height="200.027" filterUnits="userSpaceOnUse" color-interpolation-filters="sRGB">
<feFlood flood-opacity="0" result="BackgroundImageFix"/>
<feColorMatrix in="SourceAlpha" type="matrix" values="0 0 0 0 0 0 0 0 0 0 0 0 0 0 0 0 0 0 127 0" result="hardAlpha"/>
<feOffset dx="-20" dy="20"/>
<feGaussianBlur stdDeviation="10"/>
<feComposite in2="hardAlpha" operator="out"/>
<feColorMatrix type="matrix" values="0 0 0 0 0 0 0 0 0 0 0 0 0 0 0 0 0 0 0.25 0"/>
<feBlend mode="normal" in2="BackgroundImageFix" result="effect1_dropShadow_23_925"/>
<feBlend mode="normal" in="SourceGraphic" in2="effect1_dropShadow_23_925" result="shape"/>
<feColorMatrix in="SourceAlpha" type="matrix" values="0 0 0 0 0 0 0 0 0 0 0 0 0 0 0 0 0 0 127 0" result="hardAlpha"/>
<feOffset dx="2"/>
<feGaussianBlur stdDeviation="10"/>
<feComposite in2="hardAlpha" operator="arithmetic" k2="-1" k3="1"/>
<feColorMatrix type="matrix" values="0 0 0 0 0.294118 0 0 0 0 0.607843 0 0 0 0 0.733333 0 0 0 0.7 0"/>
<feBlend mode="normal" in2="shape" result="effect2_innerShadow_23_925"/>
<feColorMatrix in="SourceAlpha" type="matrix" values="0 0 0 0 0 0 0 0 0 0 0 0 0 0 0 0 0 0 127 0" result="hardAlpha"/>
<feOffset dx="-2"/>
<feGaussianBlur stdDeviation="10"/>
<feComposite in2="hardAlpha" operator="arithmetic" k2="-1" k3="1"/>
<feColorMatrix type="matrix" values="0 0 0 0 0.293333 0 0 0 0 0.608235 0 0 0 0 0.733333 0 0 0 0.7 0"/>
<feBlend mode="normal" in2="effect2_innerShadow_23_925" result="effect3_innerShadow_23_925"/>
</filter>
<filter id="filter4_f_23_925" x="769.785" y="1377.27" width="155.742" height="160.406" filterUnits="userSpaceOnUse" color-interpolation-filters="sRGB">
<feFlood flood-opacity="0" result="BackgroundImageFix"/>
<feBlend mode="normal" in="SourceGraphic" in2="BackgroundImageFix" result="shape"/>
<feGaussianBlur stdDeviation="30" result="effect1_foregroundBlur_23_925"/>
</filter>
<filter id="filter5_dii_23_925" x="1024.23" y="1159.69" width="184.712" height="200.027" filterUnits="userSpaceOnUse" color-interpolation-filters="sRGB">
<feFlood flood-opacity="0" result="BackgroundImageFix"/>
<feColorMatrix in="SourceAlpha" type="matrix" values="0 0 0 0 0 0 0 0 0 0 0 0 0 0 0 0 0 0 127 0" result="hardAlpha"/>
<feOffset dx="-20" dy="20"/>
<feGaussianBlur stdDeviation="10"/>
<feComposite in2="hardAlpha" operator="out"/>
<feColorMatrix type="matrix" values="0 0 0 0 0 0 0 0 0 0 0 0 0 0 0 0 0 0 0.25 0"/>
<feBlend mode="normal" in2="BackgroundImageFix" result="effect1_dropShadow_23_925"/>
<feBlend mode="normal" in="SourceGraphic" in2="effect1_dropShadow_23_925" result="shape"/>
<feColorMatrix in="SourceAlpha" type="matrix" values="0 0 0 0 0 0 0 0 0 0 0 0 0 0 0 0 0 0 127 0" result="hardAlpha"/>
<feOffset dx="2"/>
<feGaussianBlur stdDeviation="10"/>
<feComposite in2="hardAlpha" operator="arithmetic" k2="-1" k3="1"/>
<feColorMatrix type="matrix" values="0 0 0 0 0.294118 0 0 0 0 0.607843 0 0 0 0 0.733333 0 0 0 0.7 0"/>
<feBlend mode="normal" in2="shape" result="effect2_innerShadow_23_925"/>
<feColorMatrix in="SourceAlpha" type="matrix" values="0 0 0 0 0 0 0 0 0 0 0 0 0 0 0 0 0 0 127 0" result="hardAlpha"/>
<feOffset dx="-2"/>
<feGaussianBlur stdDeviation="10"/>
<feComposite in2="hardAlpha" operator="arithmetic" k2="-1" k3="1"/>
<feColorMatrix type="matrix" values="0 0 0 0 0.293333 0 0 0 0 0.608235 0 0 0 0 0.733333 0 0 0 0.7 0"/>
<feBlend mode="normal" in2="effect2_innerShadow_23_925" result="effect3_innerShadow_23_925"/>
</filter>
<filter id="filter6_f_23_925" x="1007.85" y="1179.52" width="155.743" height="160.406" filterUnits="userSpaceOnUse" color-interpolation-filters="sRGB">
<feFlood flood-opacity="0" result="BackgroundImageFix"/>
<feBlend mode="normal" in="SourceGraphic" in2="BackgroundImageFix" result="shape"/>
<feGaussianBlur stdDeviation="30" result="effect1_foregroundBlur_23_925"/>
</filter>
<filter id="filter7_dii_23_925" x="774" y="961.938" width="184.713" height="200.027" filterUnits="userSpaceOnUse" color-interpolation-filters="sRGB">
<feFlood flood-opacity="0" result="BackgroundImageFix"/>
<feColorMatrix in="SourceAlpha" type="matrix" values="0 0 0 0 0 0 0 0 0 0 0 0 0 0 0 0 0 0 127 0" result="hardAlpha"/>
<feOffset dx="-20" dy="20"/>
<feGaussianBlur stdDeviation="10"/>
<feComposite in2="hardAlpha" operator="out"/>
<feColorMatrix type="matrix" values="0 0 0 0 0 0 0 0 0 0 0 0 0 0 0 0 0 0 0.25 0"/>
<feBlend mode="normal" in2="BackgroundImageFix" result="effect1_dropShadow_23_925"/>
<feBlend mode="normal" in="SourceGraphic" in2="effect1_dropShadow_23_925" result="shape"/>
<feColorMatrix in="SourceAlpha" type="matrix" values="0 0 0 0 0 0 0 0 0 0 0 0 0 0 0 0 0 0 127 0" result="hardAlpha"/>
<feOffset dx="2"/>
<feGaussianBlur stdDeviation="10"/>
<feComposite in2="hardAlpha" operator="arithmetic" k2="-1" k3="1"/>
<feColorMatrix type="matrix" values="0 0 0 0 0.294118 0 0 0 0 0.607843 0 0 0 0 0.733333 0 0 0 0.7 0"/>
<feBlend mode="normal" in2="shape" result="effect2_innerShadow_23_925"/>
<feColorMatrix in="SourceAlpha" type="matrix" values="0 0 0 0 0 0 0 0 0 0 0 0 0 0 0 0 0 0 127 0" result="hardAlpha"/>
<feOffset dx="-2"/>
<feGaussianBlur stdDeviation="10"/>
<feComposite in2="hardAlpha" operator="arithmetic" k2="-1" k3="1"/>
<feColorMatrix type="matrix" values="0 0 0 0 0.293333 0 0 0 0 0.608235 0 0 0 0 0.733333 0 0 0 0.7 0"/>
<feBlend mode="normal" in2="effect2_innerShadow_23_925" result="effect3_innerShadow_23_925"/>
</filter>
<filter id="filter8_f_23_925" x="757.627" y="981.773" width="155.742" height="160.406" filterUnits="userSpaceOnUse" color-interpolation-filters="sRGB">
<feFlood flood-opacity="0" result="BackgroundImageFix"/>
<feBlend mode="normal" in="SourceGraphic" in2="BackgroundImageFix" result="shape"/>
<feGaussianBlur stdDeviation="30" result="effect1_foregroundBlur_23_925"/>
</filter>
<linearGradient id="paint0_linear_23_925" x1="1420.15" y1="1398.03" x2="1450.02" y2="871.082" gradientUnits="userSpaceOnUse">
<stop offset="1" stop-color="#16425B"/>
</linearGradient>
<linearGradient id="paint1_linear_23_925" x1="1420.15" y1="1398.03" x2="1450.02" y2="871.082" gradientUnits="userSpaceOnUse">
<stop offset="1" stop-color="#16425B"/>
</linearGradient>
<radialGradient id="paint2_radial_23_925" cx="0" cy="0" r="1" gradientUnits="userSpaceOnUse" gradientTransform="translate(476.104 42.1348) rotate(155.688) scale(249.475 307.742)">
<stop stop-color="#16425B" stop-opacity="0.898638"/>
<stop offset="1" stop-color="#16425B"/>
</radialGradient>
<linearGradient id="paint3_linear_23_925" x1="1103.47" y1="420.694" x2="1181.03" y2="524.407" gradientUnits="userSpaceOnUse">
<stop offset="1" stop-color="#16425B"/>
</linearGradient>
<linearGradient id="paint4_linear_23_925" x1="793.807" y1="1134.46" x2="1072.96" y2="847.8" gradientUnits="userSpaceOnUse">
<stop offset="1" stop-color="#16425B"/>
</linearGradient>
<radialGradient id="paint5_radial_23_925" cx="0" cy="0" r="1" gradientUnits="userSpaceOnUse" gradientTransform="translate(1852.97 593.518) rotate(-178.234) scale(145.341 171.098)">
<stop stop-color="#16425B" stop-opacity="0.898638"/>
<stop offset="1" stop-color="#16425B"/>
</radialGradient>
<radialGradient id="paint6_radial_23_925" cx="0" cy="0" r="1" gradientUnits="userSpaceOnUse" gradientTransform="translate(941.077 410.778) rotate(44.4939) scale(196.053 162.325)">
<stop stop-color="white"/>
<stop offset="1" stop-color="#F9E84F"/>
</radialGradient>
<linearGradient id="paint7_linear_23_925" x1="637.146" y1="1627.03" x2="667.02" y2="1100.08" gradientUnits="userSpaceOnUse">
<stop offset="1" stop-color="#16425B"/>
</linearGradient>
<linearGradient id="paint8_linear_23_925" x1="637.146" y1="1627.03" x2="667.02" y2="1100.08" gradientUnits="userSpaceOnUse">
<stop offset="1" stop-color="#16425B"/>
</linearGradient>
<radialGradient id="paint9_radial_23_925" cx="0" cy="0" r="1" gradientUnits="userSpaceOnUse" gradientTransform="translate(476.104 42.1348) rotate(155.688) scale(249.475 307.741)">
<stop stop-color="#16425B" stop-opacity="0.898638"/>
<stop offset="1" stop-color="#16425B"/>
</radialGradient>
<linearGradient id="paint10_linear_23_925" x1="320.474" y1="649.694" x2="398.03" y2="753.407" gradientUnits="userSpaceOnUse">
<stop offset="1" stop-color="#16425B"/>
</linearGradient>
<linearGradient id="paint11_linear_23_925" x1="10.8061" y1="1363.46" x2="289.959" y2="1076.8" gradientUnits="userSpaceOnUse">
<stop offset="1" stop-color="#16425B"/>
</linearGradient>
<radialGradient id="paint12_radial_23_925" cx="0" cy="0" r="1" gradientUnits="userSpaceOnUse" gradientTransform="translate(1069.97 822.518) rotate(-178.234) scale(145.341 171.098)">
<stop stop-color="#16425B" stop-opacity="0.898638"/>
<stop offset="1" stop-color="#16425B"/>
</radialGradient>
<clipPath id="clip0_23_925">
<rect width="2016" height="1598" fill="white"/>
</clipPath>
</defs>
</svg>
