<svg width="500" height="500" viewBox="0 0 500 500" fill="none" xmlns="http://www.w3.org/2000/svg">
<path d="M187.667 272.237C188.196 272.72 177.127 296.528 170.695 303.927C164.263 311.327 156.351 314.981 153.024 312.089C149.697 309.197 152.214 300.854 158.646 293.455C165.078 286.056 187.138 271.754 187.667 272.237Z" fill="#42A0F0"/>
<path d="M159.792 298.425C160.438 299.459 162.675 299.227 164.788 297.906C166.901 296.586 168.091 294.677 167.444 293.643C166.798 292.609 164.561 292.841 162.448 294.162C160.335 295.482 159.145 297.391 159.792 298.425Z" fill="white"/>
<path d="M255.667 272.237C256.196 272.72 245.127 296.528 238.695 303.927C232.263 311.327 224.351 314.981 221.024 312.089C217.697 309.197 220.214 300.854 226.646 293.455C233.078 286.056 255.138 271.754 255.667 272.237Z" fill="#42A0F0"/>
<path d="M227.792 298.425C228.438 299.459 230.675 299.227 232.788 297.906C234.901 296.586 236.091 294.677 235.444 293.643C234.798 292.609 232.561 292.841 230.448 294.162C228.335 295.482 227.145 297.391 227.792 298.425Z" fill="white"/>
<path d="M323.668 272.237C324.196 272.72 313.128 296.528 306.696 303.927C300.264 311.327 292.351 314.981 289.024 312.089C285.698 309.197 288.215 300.854 294.647 293.455C301.079 286.056 323.138 271.754 323.668 272.237Z" fill="#42A0F0"/>
<path d="M295.793 298.425C296.439 299.459 298.676 299.227 300.789 297.906C302.902 296.586 304.092 294.677 303.445 293.643C302.799 292.609 300.562 292.841 298.449 294.162C296.336 295.482 295.146 297.391 295.793 298.425Z" fill="white"/>
<path d="M263.667 322.237C264.196 322.72 253.127 346.528 246.695 353.927C240.263 361.327 232.351 364.981 229.024 362.089C225.697 359.197 228.214 350.854 234.646 343.455C241.078 336.056 263.138 321.754 263.667 322.237Z" fill="#42A0F0"/>
<path d="M235.792 348.425C236.438 349.459 238.675 349.227 240.788 347.906C242.901 346.586 244.091 344.677 243.444 343.643C242.798 342.609 240.561 342.841 238.448 344.162C236.335 345.482 235.145 347.391 235.792 348.425Z" fill="white"/>
<path d="M346.668 322.237C347.196 322.72 336.128 346.528 329.696 353.927C323.264 361.327 315.351 364.981 312.024 362.089C308.698 359.197 311.215 350.854 317.647 343.455C324.079 336.056 346.138 321.754 346.668 322.237Z" fill="#42A0F0"/>
<path d="M318.793 348.425C319.439 349.459 321.676 349.227 323.789 347.906C325.902 346.586 327.092 344.677 326.445 343.643C325.799 342.609 323.562 342.841 321.449 344.162C319.336 345.482 318.146 347.391 318.793 348.425Z" fill="white"/>
<path d="M286.667 358.237C287.196 358.72 276.127 382.528 269.695 389.927C263.263 397.327 255.351 400.981 252.024 398.089C248.697 395.197 251.214 386.854 257.646 379.455C264.078 372.056 286.138 357.754 286.667 358.237Z" fill="#42A0F0"/>
<path d="M258.792 384.425C259.438 385.459 261.675 385.227 263.788 383.906C265.901 382.586 267.091 380.677 266.444 379.643C265.798 378.609 263.561 378.841 261.448 380.162C259.335 381.482 258.145 383.391 258.792 384.425Z" fill="white"/>
<path d="M210.667 358.237C211.196 358.72 200.127 382.528 193.695 389.927C187.263 397.327 179.351 400.981 176.024 398.089C172.697 395.197 175.214 386.854 181.646 379.455C188.078 372.056 210.138 357.754 210.667 358.237Z" fill="#42A0F0"/>
<path d="M182.792 384.425C183.438 385.459 185.675 385.227 187.788 383.906C189.901 382.586 191.091 380.677 190.444 379.643C189.798 378.609 187.561 378.841 185.448 380.162C183.335 381.482 182.145 383.391 182.792 384.425Z" fill="white"/>
<path d="M187.667 322.237C188.196 322.72 177.127 346.528 170.695 353.927C164.263 361.327 156.351 364.981 153.024 362.089C149.697 359.197 152.214 350.854 158.646 343.455C165.078 336.056 187.138 321.754 187.667 322.237Z" fill="#42A0F0"/>
<path d="M159.792 348.425C160.438 349.459 162.675 349.227 164.788 347.906C166.901 346.586 168.091 344.677 167.444 343.643C166.798 342.609 164.561 342.841 162.448 344.162C160.335 345.482 159.145 347.391 159.792 348.425Z" fill="white"/>
<path d="M299.562 302.765C297.629 302.92 295.676 302.999 293.705 303H156.181C146.715 303.035 137.335 301.201 128.579 297.603C119.823 294.005 111.864 288.714 105.158 282.032C98.4516 275.351 93.1305 267.412 89.4997 258.669C85.869 249.927 84 240.554 84 231.087C84 221.621 85.869 212.248 89.4997 203.506C93.1305 194.763 98.4516 186.824 105.158 180.143C111.864 173.461 119.823 168.17 128.579 164.572C137.335 160.974 146.715 159.14 156.181 159.175H207.457C224.081 122.6 262.368 97 306.941 97C366.768 97 415.268 143.115 415.268 200C415.268 256.885 366.768 303 306.941 303C304.461 303 302.001 302.922 299.562 302.765Z" fill="url(#paint0_linear_102_16)"/>
<path d="M306.941 302C314.227 302 321.508 301.302 328.581 299.926C335.475 298.585 342.255 296.584 348.733 293.978C355.094 291.42 361.229 288.254 366.967 284.568C372.65 280.917 377.994 276.725 382.851 272.107C387.706 267.49 392.114 262.411 395.952 257.009C399.826 251.557 403.154 245.728 405.842 239.686C408.579 233.532 410.681 227.093 412.09 220.547C413.535 213.831 414.268 206.917 414.268 200C414.268 193.082 413.535 186.169 412.09 179.452C410.681 172.906 408.579 166.467 405.842 160.314C403.154 154.272 399.826 148.443 395.952 142.991C392.114 137.589 387.706 132.51 382.851 127.893C377.994 123.275 372.65 119.083 366.967 115.432C361.229 111.746 355.094 108.58 348.733 106.022C342.255 103.417 335.475 101.415 328.581 100.074C321.508 98.6979 314.227 98 306.941 98C285.57 98 264.931 103.952 247.254 115.214C238.734 120.642 231.077 127.194 224.497 134.688C217.876 142.229 212.449 150.607 208.367 159.588L208.1 160.175H207.456H156.181C146.607 160.175 137.321 162.049 128.579 165.747C124.377 167.524 120.324 169.724 116.534 172.285C112.778 174.822 109.247 177.735 106.038 180.945C102.829 184.154 99.9152 187.685 97.3783 191.44C94.8172 195.231 92.6175 199.284 90.8404 203.485C87.1429 212.227 85.2681 221.514 85.2681 231.087C85.2681 240.661 87.1429 249.948 90.8404 258.689C92.6175 262.891 94.8172 266.944 97.3783 270.735C99.9152 274.49 102.829 278.021 106.038 281.23C109.247 284.439 112.778 287.353 116.534 289.89C120.324 292.451 124.377 294.651 128.579 296.428C137.321 300.125 146.607 302 156.181 302H293.705C295.628 302 297.572 301.922 299.482 301.768L299.554 301.762L299.626 301.767C302.046 301.922 304.507 302 306.941 302ZM306.941 303C304.461 303 302 302.921 299.562 302.765C297.632 302.92 295.676 303 293.705 303H156.181C116.465 303 84.2681 270.803 84.2681 231.087C84.2681 191.371 116.465 159.175 156.181 159.175H207.456C224.081 122.595 262.366 97 306.941 97C366.768 97 415.268 143.115 415.268 200C415.268 256.885 366.768 303 306.941 303Z" fill="white" fill-opacity="0.5"/>
<defs>
<linearGradient id="paint0_linear_102_16" x1="218.164" y1="122.956" x2="284.206" y2="314.168" gradientUnits="userSpaceOnUse">
<stop stop-color="white" stop-opacity="0.596"/>
<stop offset="1" stop-color="#F7F7F7" stop-opacity="0.204"/>
</linearGradient>
</defs>
</svg>
