<svg width="500" height="500" viewBox="0 0 500 500" fill="none" xmlns="http://www.w3.org/2000/svg">
<g filter="url(#filter0_f_102_2)">
<path d="M192.5 297C229.779 297 260 266.779 260 229.5C260 192.221 229.779 162 192.5 162C155.221 162 125 192.221 125 229.5C125 266.779 155.221 297 192.5 297Z" fill="#FA9E42"/>
</g>
<g filter="url(#filter1_f_102_2)">
<path d="M192.5 312.834C238.524 312.834 275.833 275.524 275.833 229.5C275.833 183.477 238.524 146.167 192.5 146.167C146.476 146.167 109.167 183.477 109.167 229.5C109.167 275.524 146.476 312.834 192.5 312.834Z" stroke="#FA9E42" stroke-width="10" stroke-linecap="round" stroke-dasharray="1 66"/>
</g>
<g filter="url(#filter2_f_102_2)">
<path d="M185.333 216.119C208.904 203.6 222.237 182.579 215.114 169.168C207.991 155.758 183.109 155.035 159.538 167.554C135.968 180.074 122.634 201.094 129.757 214.505C136.88 227.916 161.763 228.639 185.333 216.119Z" fill="#F8E36F"/>
</g>
<path d="M298.578 357.638C296.967 357.767 295.34 357.833 293.698 357.834H179.094C171.206 357.863 163.389 356.335 156.093 353.336C148.796 350.338 142.163 345.928 136.575 340.361C130.986 334.793 126.552 328.177 123.526 320.891C120.501 313.606 118.943 305.795 118.943 297.907C118.943 290.018 120.501 282.207 123.526 274.922C126.552 267.636 130.986 261.02 136.575 255.452C142.163 249.885 148.796 245.475 156.093 242.477C163.389 239.478 171.206 237.95 179.094 237.979H221.824C235.678 207.5 267.583 186.167 304.728 186.167C354.583 186.167 395 224.596 395 272C395 319.404 354.583 357.834 304.728 357.834C302.661 357.834 300.611 357.768 298.578 357.638Z" fill="url(#paint0_linear_102_2)"/>
<path d="M304.727 357C310.799 357 316.867 356.419 322.761 355.272C328.506 354.154 334.156 352.487 339.555 350.315C344.855 348.184 349.968 345.545 354.75 342.473C359.485 339.431 363.939 335.938 367.986 332.09C372.032 328.242 375.705 324.009 378.904 319.508C382.132 314.964 384.905 310.107 387.145 305.072C389.426 299.944 391.178 294.578 392.352 289.123C393.556 283.526 394.167 277.765 394.167 272C394.167 266.235 393.556 260.474 392.352 254.877C391.178 249.422 389.426 244.056 387.145 238.929C384.905 233.893 382.132 229.036 378.904 224.493C375.705 219.991 372.032 215.758 367.986 211.911C363.939 208.063 359.485 204.569 354.75 201.527C349.968 198.455 344.855 195.817 339.555 193.685C334.156 191.514 328.506 189.846 322.761 188.729C316.867 187.582 310.799 187 304.727 187C286.918 187 269.719 191.961 254.989 201.345C247.889 205.868 241.508 211.329 236.025 217.574C230.507 223.858 225.984 230.839 222.583 238.324L222.361 238.813H221.824H179.094C171.116 238.813 163.377 240.375 156.093 243.456C152.591 244.937 149.214 246.77 146.055 248.904C142.926 251.019 139.983 253.447 137.309 256.121C134.634 258.795 132.206 261.738 130.092 264.867C127.958 268.026 126.125 271.403 124.644 274.905C121.563 282.19 120 289.929 120 297.906C120 305.884 121.563 313.623 124.644 320.908C126.125 324.41 127.958 327.787 130.092 330.946C132.206 334.075 134.634 337.018 137.309 339.692C139.983 342.366 142.926 344.794 146.055 346.909C149.214 349.043 152.591 350.876 156.093 352.357C163.377 355.438 171.116 357 179.094 357H293.698C295.3 357 296.92 356.935 298.512 356.807L298.572 356.802L298.632 356.806C300.648 356.935 302.699 357 304.727 357ZM304.727 357.834C302.661 357.834 300.611 357.768 298.579 357.638C296.97 357.767 295.34 357.834 293.698 357.834H179.094C145.997 357.834 119.167 331.003 119.167 297.906C119.167 264.81 145.997 237.979 179.094 237.979H221.824C235.678 207.497 267.582 186.167 304.727 186.167C354.584 186.167 395 224.596 395 272C395 319.404 354.584 357.834 304.727 357.834Z" fill="white" fill-opacity="0.49"/>
<defs>
<filter id="filter0_f_102_2" x="121" y="158" width="143" height="143" filterUnits="userSpaceOnUse" color-interpolation-filters="sRGB">
<feFlood flood-opacity="0" result="BackgroundImageFix"/>
<feBlend mode="normal" in="SourceGraphic" in2="BackgroundImageFix" result="shape"/>
<feGaussianBlur stdDeviation="2" result="effect1_foregroundBlur_102_2"/>
</filter>
<filter id="filter1_f_102_2" x="102.167" y="139.167" width="180.667" height="180.667" filterUnits="userSpaceOnUse" color-interpolation-filters="sRGB">
<feFlood flood-opacity="0" result="BackgroundImageFix"/>
<feBlend mode="normal" in="SourceGraphic" in2="BackgroundImageFix" result="shape"/>
<feGaussianBlur stdDeviation="1" result="effect1_foregroundBlur_102_2"/>
</filter>
<filter id="filter2_f_102_2" x="97.8394" y="128.618" width="149.193" height="126.438" filterUnits="userSpaceOnUse" color-interpolation-filters="sRGB">
<feFlood flood-opacity="0" result="BackgroundImageFix"/>
<feBlend mode="normal" in="SourceGraphic" in2="BackgroundImageFix" result="shape"/>
<feGaussianBlur stdDeviation="15" result="effect1_foregroundBlur_102_2"/>
</filter>
<linearGradient id="paint0_linear_102_2" x1="230.746" y1="207.797" x2="285.781" y2="367.14" gradientUnits="userSpaceOnUse">
<stop stop-color="white" stop-opacity="0.565"/>
<stop offset="1" stop-color="#F7F7F7" stop-opacity="0.204"/>
</linearGradient>
</defs>
</svg>
