<svg width="500" height="500" viewBox="0 0 500 500" fill="none" xmlns="http://www.w3.org/2000/svg">
<path d="M238.654 274.795C238.654 274.795 303.565 278.303 332.354 269.943C361.143 261.583 361.102 218.197 332.354 207.502C303.606 196.807 293.781 235.035 293.781 235.035" stroke="#D0D0D0" stroke-width="16" stroke-linecap="round"/>
<path d="M127.202 200.093C127.202 200.093 188.631 221.357 218.609 221.256C248.588 221.155 274.141 195.273 249.455 177.068C224.769 158.864 191.153 177.068 191.153 177.068" stroke="#D0D0D0" stroke-width="16" stroke-linecap="round"/>
<path d="M127 321.656C127 321.656 224.569 312.841 267.582 321.656C310.595 330.471 296.899 355.756 276.514 356.917C256.129 358.078 237.314 344.679 237.314 344.679" stroke="#D0D0D0" stroke-width="16" stroke-linecap="round"/>
<path d="M334.668 321.591H373.46" stroke="#D0D0D0" stroke-width="16" stroke-linecap="round"/>
<path d="M157.688 275.373H196.48" stroke="#D0D0D0" stroke-width="16" stroke-linecap="round"/>
</svg>
